<svg width="1572" height="1025" viewBox="0 0 1572 1025" fill="none" xmlns="http://www.w3.org/2000/svg">
<g clip-path="url(#clip0)">
<path opacity="0.1" d="M1276.12 1025C1371.65 1025 1449.09 1015.82 1449.09 1004.51C1449.09 993.188 1371.65 984.013 1276.12 984.013C1180.59 984.013 1103.15 993.188 1103.15 1004.51C1103.15 1015.82 1180.59 1025 1276.12 1025Z" fill="#98C1D9"/>
<path opacity="0.1" d="M19.6884 442.874H164.065V624.017H30.2582C29.9025 625.877 29.5611 627.749 29.1912 629.622H164.065V775.71C163.824 775.645 163.61 775.566 163.383 775.487C159.57 774.099 155.786 772.633 152.002 771.061L149.584 770.053C145.79 768.403 141.997 766.657 138.203 764.815C136.88 764.173 135.557 763.505 134.248 762.824C113.188 751.965 94.0563 738.205 77.516 722.02C77.0324 721.588 76.5771 721.13 76.0935 720.711C73.7889 718.406 71.527 716.075 69.3362 713.692L66.9179 711.073C64.3288 708.153 61.8251 705.154 59.3924 702.116C59.0368 701.671 58.6954 701.225 58.3255 700.806C48.4322 688.179 40.2176 674.507 33.8573 660.081C33.6581 659.649 33.4874 659.177 33.3025 658.771C31.3488 654.145 29.618 649.474 28.1101 644.76C27.4557 642.782 26.8298 640.831 26.2892 638.775C26.09 638.173 25.9193 637.584 25.7628 636.994C17.6826 607.963 16.7295 577.805 16.7295 547.857C16.7295 544.36 16.7295 540.851 16.7295 537.381C16.7295 525.268 16.886 513.076 17.1136 500.898C17.1136 497.742 17.2558 494.599 17.327 491.43C17.5261 483.39 17.8106 475.349 18.1805 467.309C18.2659 465.07 18.3797 462.844 18.5077 460.618C18.5077 459.334 18.5788 458.051 18.7211 456.768C19.0625 452.106 19.347 447.483 19.6884 442.874Z" fill="#98C1D9"/>
<path opacity="0.1" d="M164.066 241.184H84.8708C97.7444 222.636 111.81 204.813 126.993 187.809C138.758 174.504 151.177 161.54 164.066 149.048V241.184Z" fill="#98C1D9"/>
<path opacity="0.1" d="M164.065 246.789V437.269H20.1436C20.1436 436.719 20.2431 436.156 20.2858 435.606C20.4138 434.1 20.5419 432.594 20.6841 431.101C20.8406 429.347 21.0113 427.579 21.1963 425.863C21.3812 424.148 21.5804 422.053 21.7937 420.154C22.0071 418.255 22.2063 416.33 22.4481 414.431C22.69 412.533 22.9033 410.634 23.1594 408.748C23.4155 406.862 23.6431 404.951 23.9134 403.065C24.1268 401.493 24.3544 399.935 24.582 398.364C24.9092 396.151 25.2506 393.925 25.6205 391.725C25.6205 391.397 25.72 391.057 25.7769 390.742C28.3734 374.638 31.9113 358.674 36.3751 342.919C41.0477 326.393 47.0144 310.2 54.2284 294.468C61.8956 278.01 70.8727 262.095 81.0866 246.854L164.065 246.789Z" fill="#98C1D9"/>
<path opacity="0.1" d="M198.534 442.861V624.018H506.905V442.861H198.534ZM198.534 629.61V785.178C200.298 785.519 202.048 785.846 203.783 786.121C206.145 786.54 208.492 786.92 210.896 787.247C211.352 787.313 211.821 787.378 212.319 787.418C213.258 787.562 214.225 787.68 215.164 787.797C217.54 788.099 219.901 788.347 222.277 788.544C223.401 788.649 224.539 788.74 225.677 788.819L228.422 789.015C229.916 789.12 231.396 789.199 232.861 789.238C233.771 789.238 234.682 789.316 235.621 789.343C236.332 789.343 237.043 789.343 237.783 789.343C238.523 789.343 239.575 789.343 240.472 789.343C241.695 789.343 242.918 789.343 244.128 789.343H245.764C246.987 789.343 248.21 789.343 249.42 789.238H249.505C250.344 789.238 251.198 789.238 252.051 789.133C252.288 789.146 252.526 789.146 252.763 789.133C253.474 789.133 254.185 789.133 254.868 789.042H255.366L260.132 788.701C261.696 788.57 263.275 788.4 264.869 788.243L268.112 787.889C281.308 786.187 294.357 783.632 307.162 780.242C335.926 772.856 364.065 762.524 392.815 754.955C429.987 745.199 471.056 740.407 506.976 752.336V629.61H198.534ZM506.905 241.185V0.0139691C473.144 -0.322735 439.474 3.31219 406.713 10.8305C328.628 28.8885 258.567 68.0557 198.534 118.079V241.172H214.012V246.764H198.534V437.27H506.905V246.777H277.558V241.185H506.905ZM902.992 159.721C883.674 159.092 864.469 153.461 847.099 144.766C813.882 128.136 787.351 102.456 757.705 80.7841C696.107 35.6455 619.715 8.40788 541.346 1.65085V241.185H981.561L982.656 240.124L902.992 159.721ZM943.095 153.173L985.615 196.125V141.912C971.375 143.535 958.899 147.398 943.151 153.121L943.095 153.173ZM985.615 823.809V629.61H895.012C894.77 628.785 894.528 627.947 894.243 627.108C894.514 627.947 894.741 628.785 894.997 629.61H541.403V770.054C544.76 772.345 548.075 774.755 551.361 777.204C554.903 779.823 558.402 782.586 561.916 785.296L565.458 787.994C567.151 789.303 568.858 790.613 570.58 791.844C573.994 794.393 577.441 796.907 580.922 799.387C582.643 800.696 584.407 801.875 586.157 803.106C613.936 822.656 643.239 840.299 673.83 855.892C680.687 859.384 687.605 862.793 694.585 866.119C699.237 868.306 703.917 870.479 708.612 872.588C715.668 875.757 722.781 878.812 729.95 881.754C796.052 909.068 865.95 927.811 937.646 937.447C953.569 939.612 969.554 941.315 985.601 942.554V823.796H987.024L985.615 823.809ZM541.403 246.777V437.27H985.672V246.777H541.403ZM541.403 442.861V624.018H985.672V442.861H541.403ZM1020.16 141.676V202.149L1074.43 147.333C1056.45 144.662 1038.35 142.754 1020.16 141.61V141.676ZM1020.16 442.927V624.018H1452.26V442.861L1020.16 442.927ZM1450.68 838.187L1452.2 629.61H1020.16V944.637C1047.99 945.713 1075.86 945.407 1103.66 943.72H1104.14C1117.42 942.952 1130.64 941.834 1143.79 940.368H1144.09C1214.27 932.849 1282.89 915.995 1347.8 890.332L1450.68 838.187ZM1535.58 472.692C1533.96 469.169 1532.27 465.673 1530.55 462.216C1527.33 455.668 1523.93 449.304 1520.43 442.94H1486.72V624.018H1571.96C1571.91 572.738 1557.82 520.358 1535.62 472.626L1535.58 472.692ZM1486.72 629.675V809.077C1510.73 787.889 1531.02 763.65 1545.63 735.941C1563.19 702.575 1571.23 666.446 1571.89 629.649L1486.72 629.675ZM1486.72 390.141V437.283H1517.27C1508.03 421.055 1497.84 405.296 1486.76 390.075L1486.72 390.141ZM1193.67 177.216C1191.42 176.43 1189.17 175.631 1186.91 174.859C1163.05 166.749 1138.68 160.006 1113.92 154.666L1030.87 238.566L1029.27 240.124L1030.34 241.198H1325.92C1284.76 215.113 1240.38 193.614 1193.71 177.15L1193.67 177.216ZM1334.59 246.842H1026.22L1020.16 251.949V437.27H1073.27H1073.36H1452.32V347.504C1418.04 309.339 1378.47 275.475 1334.63 246.777L1334.59 246.842Z" fill="#98C1D9"/>
<path opacity="0.1" d="M164.065 342.867V437.269H20.1436C20.1436 436.719 20.2431 436.156 20.2858 435.606C20.4138 434.1 20.5419 432.594 20.6841 431.101C20.8406 429.347 21.0113 427.579 21.1963 425.863C21.3812 424.148 21.5804 422.053 21.7937 420.154C22.0071 418.255 22.2063 416.33 22.4481 414.431C22.69 412.533 22.9033 410.634 23.1594 408.748C23.4155 406.862 23.6431 404.951 23.9134 403.065C24.1268 401.493 24.3544 399.935 24.582 398.364C24.9092 396.151 25.2506 393.925 25.6205 391.725C25.6205 391.397 25.72 391.057 25.7769 390.742C28.3734 374.638 31.9113 358.674 36.3751 342.919L164.065 342.867Z" fill="#98C1D9"/>
<path opacity="0.1" d="M19.6884 442.874H164.065V624.017H30.2582C29.9025 625.877 29.5611 627.749 29.1912 629.622H164.065V775.71C163.824 775.645 163.61 775.566 163.383 775.487C159.57 774.099 155.786 772.633 152.002 771.061L149.584 770.053C145.79 768.403 141.997 766.657 138.203 764.815C136.88 764.173 135.557 763.505 134.248 762.824C113.188 751.965 94.0563 738.205 77.516 722.02C77.0324 721.588 76.5771 721.13 76.0935 720.711C73.7889 718.406 71.527 716.075 69.3362 713.692L66.9179 711.073C64.3288 708.153 61.8251 705.154 59.3924 702.116C59.0368 701.671 58.6954 701.225 58.3255 700.806C48.4322 688.179 40.2176 674.507 33.8573 660.081C33.6581 659.649 33.4874 659.177 33.3025 658.771C31.3488 654.145 29.618 649.474 28.1101 644.76C27.4557 642.782 26.8298 640.831 26.2892 638.775C26.09 638.173 25.9193 637.584 25.7628 636.994C17.6826 607.963 16.7295 577.805 16.7295 547.857C16.7295 544.36 16.7295 540.851 16.7295 537.381C16.7295 525.268 16.886 513.076 17.1136 500.898C17.1136 497.742 17.2558 494.599 17.327 491.43C17.5261 483.39 17.8106 475.349 18.1805 467.309C18.2659 465.07 18.3797 462.844 18.5077 460.618C18.5077 459.334 18.5788 458.051 18.7211 456.768C19.0625 452.106 19.347 447.483 19.6884 442.874Z" fill="#98C1D9"/>
<path opacity="0.1" d="M307.091 274.053V437.269H198.534V274.053H214.012V218.792H277.544V274.053H307.091Z" fill="#98C1D9"/>
<path opacity="0.1" d="M307.091 442.861H198.548V624.004H307.091V442.861Z" fill="#98C1D9"/>
<path opacity="0.1" d="M198.534 629.622H307.091V780.215C294.285 783.602 281.236 786.153 268.041 787.849L264.798 788.216C263.204 788.386 261.625 788.53 260.06 788.674C258.496 788.818 256.874 788.923 255.295 789.015H254.797C254.114 789.015 253.374 789.093 252.706 789.106H251.98C251.127 789.106 250.273 789.185 249.42 789.211C248.21 789.277 247.001 789.29 245.764 789.303C245.237 789.303 244.739 789.303 244.213 789.303C242.99 789.303 241.78 789.303 240.557 789.303H237.868C237.143 789.303 236.446 789.303 235.692 789.303L232.946 789.211C231.524 789.211 229.987 789.067 228.508 788.975L225.776 788.792L222.376 788.504C219.987 788.308 217.611 788.059 215.264 787.758L212.418 787.391L210.996 787.208C208.62 786.867 206.273 786.5 203.883 786.081C202.133 785.806 200.398 785.466 198.634 785.139L198.534 629.622Z" fill="#98C1D9"/>
<path opacity="0.1" d="M985.672 254.777H896.164V437.256H985.672V254.777Z" fill="#98C1D9"/>
<path opacity="0.1" d="M985.687 442.861V624.017H541.403V545.879H778.048V591.974H896.164V442.861H985.687Z" fill="#98C1D9"/>
<path opacity="0.1" d="M987.095 823.847H985.672V942.685C969.645 941.436 953.664 939.738 937.732 937.591C866 927.924 796.073 909.141 729.951 881.78C710.86 873.87 692.158 865.236 673.844 855.878C643.254 840.277 613.946 822.635 586.157 803.092C579.177 798.168 572.287 793.131 565.487 787.98C560.778 784.405 556.098 780.738 551.361 777.177C548.075 774.728 544.76 772.318 541.403 770.014V629.622H894.983C894.741 628.784 894.5 627.946 894.243 627.121C894.514 627.946 894.77 628.784 895.012 629.622H985.672V823.769C986.156 823.782 986.625 823.821 987.095 823.847Z" fill="#98C1D9"/>
<path opacity="0.1" d="M1219.12 241.184H1160.79V224.501H1186.94V174.806C1189.2 175.565 1191.46 176.346 1193.71 177.15V224.501H1219.12V241.184Z" fill="#98C1D9"/>
<path opacity="0.1" d="M1359.64 437.269H1073.3C1073.3 437.269 1073.3 437.269 1073.4 437.335L1073.27 437.269H1020.16V254.79H1035.21V389.669H1103.99V309.789H1160.81V246.789H1219.13V309.841H1275.95V389.721H1359.64V437.269Z" fill="#98C1D9"/>
<path opacity="0.1" d="M1020.16 442.861V624.017H1359.64V442.861H1020.16ZM1451.79 837.257L1452.26 693.866H1359.64V629.7H1020.16V944.636C1047.99 945.712 1075.86 945.406 1103.66 943.719H1104.14C1117.42 942.951 1130.64 941.833 1143.79 940.367H1144.09C1214.27 932.849 1282.89 915.994 1347.8 890.331" fill="#98C1D9"/>
<path opacity="0.1" d="M1492.75 629.622H1571.94C1571.25 666.406 1563.22 702.535 1545.67 735.901C1531.06 763.623 1510.76 787.862 1486.77 809.037V693.801H1492.75V629.622Z" fill="#98C1D9"/>
<path opacity="0.1" d="M1571.99 624.017H1492.75V472.626H1535.62C1557.82 520.357 1571.91 572.737 1571.99 624.017Z" fill="#98C1D9"/>
<path opacity="0.1" d="M985.687 305.507H937.731V362.719H985.687V305.507Z" fill="#98C1D9"/>
<path opacity="0.1" d="M985.687 424.095H937.731V437.269H985.687V424.095Z" fill="#98C1D9"/>
<path opacity="0.1" d="M985.687 442.861H937.731V481.295H985.687V442.861Z" fill="#98C1D9"/>
<path opacity="0.1" d="M985.687 542.684H937.731V599.896H985.687V542.684Z" fill="#98C1D9"/>
<path opacity="0.1" d="M985.687 661.273H937.731V718.485H985.687V661.273Z" fill="#98C1D9"/>
<path opacity="0.1" d="M985.672 823.769C986.156 823.769 986.625 823.769 987.095 823.847H985.672V837.139H937.731V779.861H985.672V823.769Z" fill="#98C1D9"/>
<path opacity="0.1" d="M985.672 898.424V942.619C969.645 941.371 953.664 939.673 937.731 937.525V898.424H985.672Z" fill="#98C1D9"/>
<path opacity="0.1" d="M746.922 619.814H541.403V624.017H746.922V619.814Z" fill="#98C1D9"/>
<path opacity="0.1" d="M746.922 629.609H541.403V645.716H746.922V629.609Z" fill="#98C1D9"/>
<path opacity="0.1" d="M746.922 698.515H541.403V724.417H746.922V698.515Z" fill="#98C1D9"/>
<path opacity="0.1" d="M746.908 777.216V803.118H586.157C579.177 798.212 572.282 793.174 565.473 788.006C560.764 784.431 556.098 780.765 551.347 777.216H746.908Z" fill="#98C1D9"/>
<path opacity="0.1" d="M746.908 855.904V881.78H729.936C710.864 873.862 692.167 865.223 673.844 855.865L746.908 855.904Z" fill="#98C1D9"/>
<path opacity="0.1" d="M1144.13 460.421H1103.67V497.663H1144.13V460.421Z" fill="#98C1D9"/>
<path opacity="0.1" d="M268.141 286.899H227.683V324.141H268.141V286.899Z" fill="#98C1D9"/>
<path opacity="0.1" d="M268.141 373.405H227.683V410.647H268.141V373.405Z" fill="#98C1D9"/>
<path opacity="0.1" d="M268.141 459.91H227.683V497.153H268.141V459.91Z" fill="#98C1D9"/>
<path opacity="0.1" d="M268.141 546.403H227.683V583.645H268.141V546.403Z" fill="#98C1D9"/>
<path opacity="0.1" d="M268.141 632.909H227.683V670.151H268.141V632.909Z" fill="#98C1D9"/>
<path opacity="0.1" d="M268.141 719.414H227.683V756.657H268.141V719.414Z" fill="#98C1D9"/>
<path opacity="0.1" d="M1298.58 460.421H1258.12V497.663H1298.58V460.421Z" fill="#98C1D9"/>
<path opacity="0.1" d="M1144.13 552.283H1103.67V589.525H1144.13V552.283Z" fill="#98C1D9"/>
<path opacity="0.1" d="M1298.58 552.283H1258.12V589.525H1298.58V552.283Z" fill="#98C1D9"/>
<path opacity="0.1" d="M1144.13 644.131H1103.67V681.373H1144.13V644.131Z" fill="#98C1D9"/>
<path opacity="0.1" d="M1298.58 644.131H1258.12V681.373H1298.58V644.131Z" fill="#98C1D9"/>
<path opacity="0.1" d="M1144.13 735.993H1103.67V773.235H1144.13V735.993Z" fill="#98C1D9"/>
<path opacity="0.1" d="M1298.58 735.993H1258.12V773.235H1298.58V735.993Z" fill="#98C1D9"/>
<path opacity="0.1" d="M1144.13 827.854H1103.67V865.097H1144.13V827.854Z" fill="#98C1D9"/>
<path opacity="0.1" d="M1298.58 827.854H1258.12V865.097H1298.58V827.854Z" fill="#98C1D9"/>
<path opacity="0.1" d="M1103.67 943.719V919.703H1144.12V940.301L1103.67 943.719Z" fill="#98C1D9"/>
<path opacity="0.1" d="M25.6064 390.716V412.022H164.065V390.716H25.6064ZM39.4054 410.686H28.1102V392.026H39.4908L39.4054 410.686ZM53.1901 410.686H41.8095V392.026H53.1901V410.686ZM66.9464 410.686H55.5658V392.026H66.9464V410.686ZM80.7311 410.686H69.3648V392.026H80.7454L80.7311 410.686ZM94.5016 410.686H83.1211V392.026H94.5016V410.686ZM108.286 410.686H96.9058V392.026H108.286V410.686ZM122.071 410.686H110.691V392.026H122.071V410.686ZM135.842 410.686H124.461V392.026H135.842V410.686ZM149.612 410.686H138.232V392.026H149.612V410.686ZM163.383 410.686H152.002V392.026H163.383V410.686Z" fill="#98C1D9"/>
<path opacity="0.1" d="M25.6064 452.708V474.014H164.065V452.708H25.6064ZM39.4054 472.665H28.1102V454.057H39.4908L39.4054 472.665ZM53.1901 472.665H41.8095V454.057H53.1901V472.665ZM66.9464 472.665H55.5658V454.057H66.9464V472.665ZM80.7311 472.665H69.3648V454.057H80.7454L80.7311 472.665ZM94.5016 472.665H83.1211V454.057H94.5016V472.665ZM108.286 472.665H96.9058V454.057H108.286V472.665ZM122.071 472.665H110.691V454.057H122.071V472.665ZM135.842 472.665H124.461V454.057H135.842V472.665ZM149.612 472.665H138.232V454.057H149.612V472.665ZM163.383 472.665H152.002V454.057H163.383V472.665Z" fill="#98C1D9"/>
<path opacity="0.1" d="M25.6064 514.726V536.071H164.065V514.726H25.6064ZM39.4054 534.683H28.1102V516.062H39.4908L39.4054 534.683ZM53.1901 534.683H41.8095V516.062H53.1901V534.683ZM66.9464 534.683H55.5658V516.062H66.9464V534.683ZM80.7311 534.683H69.3648V516.062H80.7454L80.7311 534.683ZM94.5016 534.683H83.1211V516.062H94.5016V534.683ZM108.286 534.683H96.9058V516.062H108.286V534.683ZM122.071 534.683H110.691V516.062H122.071V534.683ZM135.842 534.683H124.461V516.062H135.842V534.683ZM149.612 534.683H138.232V516.062H149.612V534.683ZM163.383 534.683H152.002V516.062H163.383V534.683Z" fill="#98C1D9"/>
<path opacity="0.1" d="M25.6064 576.744V598.023H164.065V576.744H25.6064ZM39.4054 596.701H28.1102V578.067H39.4908L39.4054 596.701ZM53.1901 596.701H41.8095V578.067H53.1901V596.701ZM66.9464 596.701H55.5658V578.067H66.9464V596.701ZM80.7311 596.701H69.3648V578.067H80.7454L80.7311 596.701ZM94.5016 596.701H83.1211V578.067H94.5016V596.701ZM108.286 596.701H96.9058V578.067H108.286V596.701ZM122.071 596.701H110.691V578.067H122.071V596.701ZM135.842 596.701H124.461V578.067H135.842V596.701ZM149.612 596.701H138.232V578.067H149.612V596.701ZM163.383 596.701H152.002V578.067H163.383V596.701Z" fill="#98C1D9"/>
<path opacity="0.1" d="M26.2039 638.749C26.7587 640.753 27.3846 642.756 28.039 644.734V640.085H39.4195V658.706H33.3309C33.5159 659.138 33.7008 659.61 33.8857 660.016H164.065V638.749H26.2039ZM53.2327 658.706H41.8522V640.085H53.2327V658.706ZM66.989 658.706H55.6084V640.085H66.989V658.706ZM80.7737 658.706H69.3647V640.085H80.7453L80.7737 658.706ZM94.5443 658.706H83.1637V640.085H94.5443V658.706ZM108.329 658.706H96.9484V640.085H108.329V658.706ZM122.114 658.706H110.733V640.085H122.114V658.706ZM135.884 658.706H124.504V640.085H135.884V658.706ZM149.655 658.706H138.274V640.085H149.655V658.706ZM163.425 658.706H152.045V640.085H163.425V658.706Z" fill="#98C1D9"/>
<path opacity="0.1" d="M58.354 700.767C58.7096 701.186 59.0511 701.658 59.4209 702.077H66.9463V711.021C67.7572 711.911 68.5539 712.802 69.3789 713.64V702.024H80.7595V720.711H76.1504C76.6056 721.143 77.0466 721.601 77.573 722.021H164.108V700.767H58.354ZM94.5016 720.711H83.121V702.103H94.5016V720.711ZM108.286 720.711H96.9057V702.103H108.286V720.711ZM122.071 720.711H110.69V702.103H122.071V720.711ZM135.842 720.711H124.461V702.103H135.842V720.711ZM149.612 720.711H138.231V702.103H149.612V720.711ZM163.383 720.711H152.002V702.103H163.383V720.711Z" fill="#98C1D9"/>
<path opacity="0.1" d="M134.305 762.772C135.6 763.453 136.923 764.082 138.26 764.763V764.108H149.641V770.001L152.059 771.035V764.108H163.44V775.435C163.658 775.535 163.887 775.614 164.122 775.671V762.772H134.305Z" fill="#98C1D9"/>
<path opacity="0.1" d="M1073.3 437.269H1073.39H1073.3ZM985.672 823.756H987.095H985.672ZM894.244 627.108C894.514 627.946 894.742 628.784 894.998 629.609C894.77 628.784 894.528 627.946 894.244 627.108ZM1073.3 437.23H1073.39H1073.3ZM214.069 241.145V246.736H277.615V241.145H214.069ZM985.672 823.756H987.095H985.672ZM894.244 627.108C894.514 627.946 894.742 628.784 894.998 629.609C894.77 628.784 894.528 627.946 894.244 627.108ZM1073.3 437.23H1073.39H1073.3ZM985.672 823.716H987.095H985.672ZM894.244 627.108C894.514 627.946 894.742 628.784 894.998 629.609C894.77 628.784 894.528 627.946 894.244 627.108Z" fill="#98C1D9"/>
<path opacity="0.1" d="M188.818 995.995C265.373 995.995 327.434 986.819 327.434 975.501C327.434 964.182 265.373 955.007 188.818 955.007C112.263 955.007 50.2026 964.182 50.2026 975.501C50.2026 986.819 112.263 995.995 188.818 995.995Z" fill="#98C1D9"/>
<path d="M193.285 582.912H184.365V767.774H193.285V582.912Z" fill="#535461"/>
<path d="M249.334 767.211L248.78 775.54L247.983 787.325L247.656 792.223L246.873 804.008L246.532 808.906L245.735 820.691L236.745 954.352C236.354 960.103 233.597 965.501 229.036 969.447C224.474 973.393 218.451 975.59 212.191 975.592H165.445C159.187 975.59 153.165 973.392 148.606 969.446C144.047 965.5 141.293 960.102 140.906 954.352L131.958 820.6L131.161 808.814L130.834 803.917L130.037 792.131L129.71 787.234L128.914 775.448L128.345 767.12C128.246 765.517 128.504 763.912 129.103 762.404C129.702 760.896 130.629 759.517 131.828 758.351C133.027 757.185 134.472 756.256 136.075 755.623C137.677 754.989 139.404 754.664 141.148 754.666H236.759C238.496 754.68 240.212 755.021 241.801 755.669C243.39 756.317 244.817 757.258 245.996 758.434C247.174 759.609 248.078 760.995 248.653 762.504C249.227 764.014 249.459 765.616 249.334 767.211Z" fill="#3F3D56"/>
<path d="M248.78 775.54L247.983 787.286H129.653L128.857 775.54H248.78Z" fill="#9D9CB5"/>
<path d="M247.656 792.184L246.873 803.943H130.777L129.98 792.184H247.656Z" fill="#9D9CB5"/>
<path d="M246.532 808.854L245.749 820.6H131.901L131.104 808.854H246.532Z" fill="#9D9CB5"/>
<path d="M115.243 652.198C167.181 686.795 188.861 740.903 188.861 740.903C188.861 740.903 126.268 738.926 74.3153 704.329C22.3629 669.732 0.725586 615.636 0.725586 615.636C0.725586 615.636 63.2903 617.601 115.243 652.198Z" fill="#98C1D9"/>
<path d="M0.682861 615.636C0.682861 615.636 65.666 648.832 86.5067 676.319C107.347 703.805 188.861 740.903 188.861 740.903" stroke="#535461" stroke-width="2" stroke-miterlimit="10"/>
<path d="M148.773 582.506C177.039 601.324 188.861 630.774 188.861 630.774C188.861 630.774 154.79 629.701 126.509 610.883C98.2287 592.065 86.4355 562.602 86.4355 562.602C86.4355 562.602 120.492 563.675 148.773 582.506Z" fill="#98C1D9"/>
<path d="M86.4355 562.602C86.4355 562.602 121.801 580.673 133.139 595.627C144.477 610.582 188.861 630.774 188.861 630.774" stroke="#535461" stroke-width="2" stroke-miterlimit="10"/>
<path d="M229.902 629.281C197.425 662.137 190.554 705.075 190.554 705.075C190.554 705.075 236.346 694.73 268.795 661.862C301.244 628.993 308.144 586.068 308.144 586.068C308.144 586.068 262.379 596.426 229.902 629.281Z" fill="#98C1D9"/>
<path d="M308.172 586.081C308.172 586.081 265.865 619.761 255.11 642.966C244.355 666.17 190.554 705.075 190.554 705.075" stroke="#535461" stroke-width="2" stroke-miterlimit="10"/>
<path d="M1422.1 617.718C1422.1 617.718 1398.62 510.156 1407.61 496.773C1407.61 496.773 1407.93 484.333 1407.39 468.475C1407.39 467.872 1407.39 467.27 1407.39 466.654C1408.98 467.625 1410.62 468.5 1412.33 469.273C1420.61 473.191 1430.12 474.321 1439.22 472.468L1432.1 465.175C1430.4 463.433 1428.62 461.547 1428.25 459.242C1427.88 456.938 1428.9 454.882 1429.79 452.826C1436.54 437.112 1436.9 417.352 1423.88 405.356C1412.89 395.273 1410.21 382.257 1398.28 373.051C1389.56 366.307 1384.76 356.42 1380.24 346.861C1376.41 338.781 1372.56 330.636 1370.36 322.072C1368.66 315.381 1367.97 308.453 1365.63 301.919C1363.28 295.385 1358.88 289.033 1352.01 286.113C1349.57 285.079 1346.85 284.489 1344.62 283.114C1341.69 281.294 1339.92 278.335 1337.8 275.742C1327.03 262.647 1290.97 270.36 1273.9 275.677C1269.26 277.015 1264.96 279.207 1261.27 282.119L1261.42 281.884C1261.55 281.687 1261.71 281.491 1261.85 281.294C1259.98 282.685 1258.37 284.343 1257.07 286.205C1254.58 289.832 1253.54 294.062 1251.47 297.99C1248.96 302.639 1235.04 315.616 1241.02 320.841C1241.44 321.192 1241.92 321.475 1242.45 321.679C1244.7 322.541 1247.17 322.769 1249.56 322.334L1249.3 322.897C1247.26 327.507 1246.21 332.44 1246.22 337.42C1246.22 358.935 1265.49 376.377 1289.29 376.377C1293.77 376.381 1298.21 375.75 1302.48 374.505C1302.58 375.002 1302.66 375.5 1302.76 375.997C1302.76 376.194 1302.84 376.39 1302.86 376.587L1302.11 377.556C1302.07 377.496 1302.03 377.439 1301.98 377.386L1279.65 406.116C1276.23 408.329 1256.57 421.424 1255.46 431.245C1254.3 441.996 1253.13 454.581 1253.13 454.581L1252.97 457.278C1252 458.029 1250.86 458.576 1249.63 458.881C1248.4 459.186 1247.11 459.243 1245.86 459.046C1238.89 457.998 1238.89 482.617 1238.89 482.617C1238.89 482.617 1234.25 486.546 1231.07 483.141C1227.88 479.736 1219.46 491.273 1219.46 491.273L1166.68 493.368L1165.47 493.434L1162.63 485.328C1162.32 484.473 1161.66 483.764 1160.79 483.354C1159.92 482.945 1158.91 482.868 1157.97 483.141C1157.75 483.208 1157.54 483.291 1157.33 483.39L1157.14 483.494L1156.77 483.73L1156.58 483.887C1156.48 483.973 1156.38 484.064 1156.3 484.162L1156.13 484.346L1156.04 484.424C1155.71 484.842 1155.49 485.325 1155.4 485.835C1155.32 486.344 1155.36 486.866 1155.53 487.357L1157.97 494.311C1147.79 496.197 1137.38 501.513 1145.87 516.153L1102.82 508.833L1116.75 519.597L1188.65 533.256C1187.69 534.827 1188.32 537.105 1191.29 540.314C1204.09 554.155 1227.42 557.914 1236.81 558.883C1239.29 563.988 1242.39 568.82 1246.05 573.287L1245.24 587.076C1245.24 587.076 1221.46 692.177 1217.11 697.506C1219.31 695.214 1221.32 692.776 1223.13 690.213C1216.23 711.806 1206.58 741.362 1204.05 745.788C1199.98 752.859 1196.21 781.472 1200.85 783.305C1202.27 783.868 1206.34 783.593 1212.15 783.187V785.557L1211.89 875.376C1211.89 875.376 1213.06 930.467 1209.86 935.718C1206.65 940.969 1205.8 951.982 1205.8 951.982C1205.8 951.982 1193 973.707 1182.86 982.441C1182.79 982.509 1182.71 982.57 1182.63 982.624L1182.31 980.582C1182.31 980.582 1170.12 994.75 1143.15 993.952C1143.15 993.952 1126.92 1003.67 1150.99 1004.19C1175.06 1004.72 1205.8 1003.41 1205.8 1003.41C1205.8 1003.41 1227.27 973.288 1245.25 977.216V1000.04H1250.75V976.849C1253.31 975.302 1255.49 973.294 1257.18 970.946C1258.86 968.598 1260.01 965.96 1260.56 963.191C1261.03 960.337 1260.68 957.42 1259.55 954.726C1258.43 952.032 1256.56 949.656 1254.13 947.831C1253.03 946.922 1252.16 945.816 1251.55 944.581C1250.95 943.346 1250.63 942.009 1250.61 940.655L1250.41 940.812C1250.41 940.354 1250.29 939.882 1250.23 939.398C1248.65 927.612 1246.67 903.295 1253.66 885.302C1263.23 860.631 1266.13 826.27 1259.16 805.815C1256.91 799.277 1255.07 792.627 1253.63 785.898C1253.46 785.047 1253.3 784.235 1253.16 783.475C1257.92 784.069 1262.64 784.943 1267.28 786.094C1283.43 790.193 1318.75 790.952 1348.91 790.73C1348.98 791.489 1349.07 792.288 1349.17 793.087C1349.71 798.639 1350.83 804.13 1352.53 809.482C1356.31 819.958 1358.05 866.144 1358.05 866.144C1358.05 866.144 1362.92 904.12 1360.26 919.572C1358.84 928.162 1357.42 936.792 1356.61 945.461V945.631C1356.61 945.631 1348.61 966.583 1342.77 977.962C1342.62 978.251 1342.47 978.539 1342.33 978.814C1340.77 978.944 1339.23 979.257 1337.76 979.743C1337.76 979.743 1329.92 994.148 1322.11 996.531C1314.3 998.915 1316.89 1006.76 1334.57 1003.88C1352.26 1001 1378.96 998.639 1378.96 998.639L1380.11 983.947L1385.54 977.687L1384.12 992.341L1389.91 991.293L1389.14 973.471L1398.03 963.231C1398.03 963.231 1408.77 954.431 1392.81 937.119V937.499C1392.64 937.25 1392.49 936.988 1392.3 936.739V936.661C1389.65 932.889 1387.55 925.857 1391.4 913.378C1398.37 890.828 1402.43 870.361 1402.43 870.361C1402.43 870.361 1417.99 815.532 1399.29 789.591H1400.11C1398.19 785.94 1396.84 782.062 1396.08 778.067C1395.99 777.596 1395.9 777.111 1395.83 776.613C1409.67 775.88 1423.26 773.575 1434.34 768.599C1434.29 768.547 1427.62 638.435 1422.1 617.718ZM1246.37 526.97V527.232L1243.53 527.363L1246.37 526.97ZM1236.61 528.214C1236.15 528.309 1235.71 528.502 1235.33 528.777C1234.11 530.37 1233.34 532.221 1233.1 534.159L1228.66 533.242C1228.66 533.242 1225.55 532.627 1221.07 531.933L1218.95 529.969C1224.78 529.523 1230.84 528.869 1236.61 528.214Z" fill="url(#paint0_linear)"/>
<path d="M1383.47 973.654L1381.77 992.21L1387.45 991.162L1386.6 971.035L1383.47 973.654Z" fill="#1D2366"/>
<path d="M1253.97 885.551C1247.13 903.491 1249.06 927.704 1250.6 939.463C1251.17 943.811 1251.69 946.456 1251.69 946.456C1251.69 946.456 1241.47 967.906 1240.61 968.718C1239.76 969.53 1210.51 985.964 1210.51 985.964L1190.07 996.951C1190.07 996.951 1169.33 988.583 1179.27 985.702C1181.3 984.951 1183.13 983.803 1184.63 982.337C1194.59 973.628 1207.1 951.982 1207.1 951.982C1207.1 951.982 1207.95 940.996 1211.08 935.771C1214.21 930.546 1213.07 875.638 1213.07 875.638L1213.31 786.134V774.466L1252.22 774.728C1252.47 778.689 1253.03 782.628 1253.9 786.513C1255.3 793.22 1257.1 799.848 1259.32 806.365C1266.18 826.781 1263.33 860.972 1253.97 885.551Z" fill="#FFB0B1"/>
<path opacity="0.1" d="M1251.69 946.456C1251.69 946.456 1241.47 967.906 1240.61 968.718C1239.76 969.53 1210.51 985.964 1210.51 985.964L1190.07 996.95C1190.07 996.95 1169.33 988.583 1179.27 985.702C1181.3 984.951 1183.13 983.803 1184.63 982.336L1185.52 988.059L1192.33 987.797L1250.66 939.49C1251.17 943.811 1251.69 946.456 1251.69 946.456Z" fill="black"/>
<path d="M1250.98 940.707L1192.33 989.342L1185.52 989.604L1184.09 980.438C1184.09 980.438 1172.17 994.554 1145.68 993.768C1145.68 993.768 1129.78 1003.45 1153.35 1003.97C1176.92 1004.49 1207.02 1003.18 1207.02 1003.18C1207.02 1003.18 1228.05 973.065 1245.65 976.994V999.74H1251.05V976.784C1253.57 975.227 1255.71 973.217 1257.36 970.877C1259.01 968.536 1260.12 965.913 1260.64 963.165C1261.11 960.335 1260.78 957.441 1259.68 954.762C1258.58 952.083 1256.75 949.71 1254.37 947.87C1253.3 946.952 1252.45 945.842 1251.87 944.611C1251.29 943.379 1250.99 942.051 1250.98 940.707Z" fill="#1D2366"/>
<path d="M1388.87 913.522C1385.09 925.962 1387.15 932.968 1389.74 936.727V936.805C1393.06 941.446 1395.37 946.636 1396.54 952.087L1396.77 953.266L1370.08 989.08L1355.6 994.318C1355.6 994.318 1332.31 986.998 1336.56 984.903C1337.63 984.392 1339.3 981.669 1341.2 977.91C1346.89 966.583 1354.74 945.684 1354.74 945.684V945.513C1355.57 936.884 1356.88 928.28 1358.33 919.716C1360.93 904.303 1356.15 866.472 1356.15 866.472C1356.15 866.472 1354.45 820.469 1350.75 810.006C1349.08 804.686 1347.97 799.231 1347.43 793.716C1346.66 787.168 1346.49 781.773 1346.49 781.773C1346.49 781.773 1361.83 762.131 1389.94 783.345C1392.19 785.036 1394.16 787.011 1395.81 789.211C1415.23 814.642 1399.6 870.662 1399.6 870.662C1399.6 870.662 1395.69 891.038 1388.87 913.522Z" fill="#FFB0B1"/>
<path opacity="0.1" d="M1396.81 953.265L1370.12 989.08L1355.64 994.318C1355.64 994.318 1332.35 986.998 1336.61 984.903C1337.67 984.392 1339.34 981.669 1341.24 977.91C1351.1 977.832 1356.21 986.474 1356.21 986.474L1368.7 984.641C1368.7 984.641 1385.17 954.837 1388.87 953.017C1392.57 951.196 1389.44 939.411 1389.44 939.411V936.412C1389.54 936.517 1389.63 936.635 1389.74 936.739V936.818C1393.06 941.458 1395.37 946.649 1396.54 952.1L1396.81 953.265Z" fill="black"/>
<path d="M1357.06 987.247C1357.06 987.247 1349.95 975.226 1336.32 979.665C1336.32 979.665 1328.65 994.07 1320.99 996.401C1313.32 998.731 1315.88 1006.59 1333.21 1003.72C1350.53 1000.85 1376.65 998.483 1376.65 998.483L1377.79 983.829L1395.4 963.178C1395.4 963.178 1405.9 954.418 1390.28 937.172V940.171C1390.28 940.171 1393.41 951.956 1389.71 953.776C1386.01 955.596 1369.6 985.414 1369.6 985.414L1357.06 987.247Z" fill="#1D2366"/>
<path opacity="0.1" d="M1252.26 774.702C1252.51 778.663 1253.07 782.602 1253.94 786.487C1237.92 784.327 1223.06 785.4 1213.31 786.107V774.44L1252.26 774.702Z" fill="black"/>
<path opacity="0.1" d="M1397.39 792.472C1397.39 792.472 1374.63 793.493 1347.49 793.703C1346.72 787.155 1346.55 781.76 1346.55 781.76C1346.55 781.76 1361.89 762.118 1390 783.331C1392.24 785.023 1394.22 786.998 1395.87 789.198C1396.31 790.314 1396.82 791.407 1397.39 792.472Z" fill="black"/>
<path d="M1397.39 790.115C1397.39 790.115 1297.7 794.554 1267.31 786.71C1236.93 778.866 1206.81 785.662 1202.27 783.842C1197.74 782.022 1201.42 753.514 1205.4 746.456C1209.39 739.398 1231.24 668.017 1231.24 668.017L1252.26 567.106L1274.41 561.488L1275.98 561.082L1314.57 551.287L1342.85 544.098C1342.85 544.098 1399.09 746.194 1394.26 761.096C1392.51 766.802 1392.23 772.806 1393.44 778.63C1394.18 782.608 1395.51 786.473 1397.39 790.115Z" fill="#1D2366"/>
<path d="M1178.97 498.096C1178.97 498.096 1159.06 517.738 1174.14 528.685C1189.21 539.633 1199.13 529.733 1199.13 529.733L1178.97 498.096Z" fill="#C7DAF5"/>
<path opacity="0.1" d="M1178.97 498.096C1178.97 498.096 1159.06 517.738 1174.14 528.685C1189.21 539.633 1199.13 529.733 1199.13 529.733L1178.97 498.096Z" fill="black"/>
<path d="M1339.88 368.952C1339.88 368.952 1337.55 370.995 1334.03 374.007C1329.02 378.315 1321.61 384.614 1315.04 389.891C1305.94 397.185 1298.42 402.541 1301.11 397.971C1303.8 393.401 1303.29 385.439 1301.95 377.988C1301.85 377.49 1301.77 376.993 1301.67 376.508C1300.56 371.036 1299.09 365.631 1297.27 360.323C1297.27 360.323 1311.98 342.828 1320.12 335.927C1323.15 333.308 1325.27 332.234 1325.4 334.054C1325.54 336.503 1327.53 341.911 1330.01 347.647C1330.08 347.83 1330.15 348 1330.23 348.184C1331.88 352.112 1333.75 356.145 1335.38 359.629C1337.89 364.971 1339.88 368.952 1339.88 368.952Z" fill="#FFB0B1"/>
<path opacity="0.1" d="M1330.23 348.184C1328.85 355.028 1325.5 361.404 1320.52 366.647C1315.55 371.89 1309.13 375.807 1301.95 377.988C1300.82 372.01 1299.26 366.109 1297.27 360.323C1297.27 360.323 1324.97 327.389 1325.4 334.054C1325.5 336.581 1327.66 342.186 1330.23 348.184Z" fill="black"/>
<path opacity="0.1" d="M1299.19 386.788L1302.78 382.139C1302.78 382.139 1305.15 395.47 1313.89 389.59C1322.62 383.71 1323.05 433.838 1323.05 433.838L1313.68 562.863L1245.93 559.131L1247.85 496.786L1255.52 465.358L1274.48 419.669L1285.76 404.571L1299.19 386.788Z" fill="black"/>
<path d="M1323.05 434.637L1314.51 551.301L1313.62 563.662L1275.85 561.58L1274.43 561.502L1245.97 559.93L1247.9 497.572L1255.56 466.144L1274.53 420.455L1285.81 405.357L1299.24 387.508L1302.82 382.872C1302.82 382.872 1305.2 396.203 1313.93 390.323L1314.12 390.206C1322.65 385.229 1323.05 434.637 1323.05 434.637Z" fill="#1D2366"/>
<path d="M1256.52 455.222C1256.52 455.222 1253.12 461.77 1246.29 460.709C1239.46 459.648 1239.47 484.28 1239.47 484.28C1239.47 484.28 1234.94 488.209 1231.81 484.804C1228.68 481.399 1220.43 492.91 1220.43 492.91L1168.73 495.005C1168.73 495.005 1191.73 504.682 1187.22 533.963C1187.22 533.963 1265.32 529.51 1267.88 522.714C1270.44 515.918 1256.52 455.222 1256.52 455.222Z" fill="white"/>
<path opacity="0.03" d="M1256.52 455.222C1256.52 455.222 1253.12 461.77 1246.29 460.709C1239.46 459.648 1239.47 484.28 1239.47 484.28C1239.47 484.28 1234.94 488.209 1231.81 484.804C1228.68 481.399 1220.43 492.91 1220.43 492.91L1168.73 495.005C1168.73 495.005 1191.73 504.682 1187.22 533.963C1187.22 533.963 1265.32 529.51 1267.88 522.714C1270.44 515.918 1256.52 455.222 1256.52 455.222Z" fill="black"/>
<path d="M1106.28 510.392L1119.91 521.103L1232.09 542.802L1218.18 529.733L1106.28 510.392Z" fill="white"/>
<path d="M1299.41 390.913C1297.54 393.532 1292.21 406.941 1287.76 418.648C1284.04 428.404 1280.94 436.981 1280.94 436.981C1280.94 436.981 1273.7 480.378 1270 488.222C1266.3 496.066 1268.31 526.656 1268.31 526.656L1254.52 602.201C1254.52 602.201 1248.28 641.159 1238.63 664.429C1229.12 687.332 1218.52 698.07 1218.19 698.41C1222.46 693.094 1245.72 588.412 1245.72 588.412L1253.4 456.388C1253.4 456.388 1254.52 443.843 1255.66 433.118C1256.8 422.393 1279.85 407.753 1279.85 407.753L1302.07 378.669C1304.3 381.419 1302.81 386.212 1299.41 390.913Z" fill="white"/>
<path d="M1241.47 560.585C1241.47 560.585 1208.75 559.275 1192.9 541.754C1177.05 524.233 1229.53 534.762 1229.53 534.762L1243.17 537.643L1241.47 560.585Z" fill="#FFB0B1"/>
<path opacity="0.1" d="M1394.26 761.109C1392.51 766.815 1392.23 772.819 1393.44 778.643C1357.75 780.974 1319.56 772.096 1319.56 772.096C1312.45 778.12 1293.72 786.998 1293.72 786.998L1283.5 670.452C1276.97 654.738 1274.41 572.41 1274.41 572.41C1274.41 572.41 1275 568.101 1275.83 561.646C1275.83 561.488 1275.83 561.318 1275.91 561.161C1278.45 543.129 1283.5 509.279 1285.98 504.708C1289.39 498.423 1275.48 481.701 1275.48 481.701L1281.81 432.005L1282.58 426.007C1295.92 420.521 1306.15 402.999 1306.15 402.999L1314 390.336C1322.54 385.295 1322.98 434.702 1322.98 434.702L1314.44 551.366L1342.72 544.177C1342.72 544.177 1399.09 746.207 1394.26 761.109Z" fill="black"/>
<path d="M1430.9 769.162C1391.99 786.945 1321.27 770.472 1321.27 770.472C1314.16 776.496 1295.42 785.374 1295.42 785.374L1285.2 668.828C1278.68 653.114 1276.12 570.786 1276.12 570.786C1276.12 570.786 1284.34 509.357 1287.76 503.085C1288.75 501.251 1288.27 498.528 1287.09 495.594C1281.28 481.633 1279.15 466.605 1280.86 451.739L1283.59 430.381L1284.34 424.397C1297.7 418.897 1307.93 401.376 1307.93 401.376L1315.04 389.904L1328.13 368.769L1334.33 358.764L1335.38 359.642L1343.42 366.346C1343.42 366.346 1346.84 368.965 1351.96 372.894C1363.1 381.537 1382.34 396.753 1392.27 406.064C1401.01 414.261 1403.77 446.147 1404.56 470.151C1405.09 485.956 1404.78 498.344 1404.78 498.344C1395.97 511.688 1419 618.818 1419 618.818C1424.37 639.522 1430.9 769.162 1430.9 769.162Z" fill="white"/>
<path opacity="0.03" d="M1356.21 401.114C1356.21 401.114 1329.51 447.902 1332.61 465.685C1335.71 483.468 1344.53 503.595 1340.28 508.296C1338.82 510.078 1336.93 511.523 1334.76 512.521C1332.59 513.518 1330.2 514.04 1327.77 514.045C1323.51 514.307 1312.12 521.627 1312.12 522.413C1312.12 523.199 1301.61 523.199 1292.21 526.865C1282.81 530.532 1268.92 532.614 1268.92 532.614C1268.92 532.614 1241.89 531.828 1239.37 534.185C1236.86 536.542 1234.27 550.646 1239.66 561.894C1245.05 573.143 1251.04 581.537 1255.56 583.069C1260.09 584.601 1288.79 575.749 1312.08 573.654C1335.37 571.558 1360.65 554.574 1360.65 554.574C1360.65 554.574 1388.49 545.408 1393.37 529.995C1398.25 514.582 1387.41 429.87 1387.41 429.87C1387.41 429.87 1379.21 390.389 1356.21 401.114Z" fill="black"/>
<path opacity="0.03" d="M1352.8 397.185C1352.8 397.185 1326.09 443.987 1329.22 461.757C1332.35 479.527 1341.14 499.667 1336.88 504.381C1335.42 506.164 1333.53 507.612 1331.37 508.609C1329.2 509.607 1326.81 510.127 1324.39 510.13C1320.12 510.392 1308.74 517.712 1308.74 518.498C1308.74 519.283 1298.23 519.283 1288.82 522.937C1279.42 526.59 1265.53 528.686 1265.53 528.686C1265.53 528.686 1238.51 527.9 1236 530.257C1233.5 532.614 1230.88 546.73 1236.29 557.966C1241.69 569.202 1247.67 577.609 1252.19 579.141C1256.71 580.673 1285.42 571.821 1308.71 569.738C1332 567.656 1357.28 550.646 1357.28 550.646C1357.28 550.646 1385.1 541.479 1389.93 526.08C1394.75 510.68 1383.96 425.942 1383.96 425.942C1383.96 425.942 1375.8 386.474 1352.8 397.185Z" fill="black"/>
<path d="M1355.37 398.757C1355.37 398.757 1328.67 445.558 1331.8 463.328C1334.93 481.098 1343.72 501.238 1339.47 505.939C1338.01 507.727 1336.12 509.178 1333.95 510.178C1331.78 511.178 1329.39 511.699 1326.96 511.701C1322.69 511.963 1311.31 519.283 1311.31 520.056C1311.31 520.828 1300.82 520.842 1291.4 524.508C1281.98 528.175 1268.11 530.257 1268.11 530.257C1268.11 530.257 1241.08 529.471 1238.56 531.828C1236.05 534.185 1233.46 548.302 1238.85 559.537C1244.24 570.773 1250.23 579.18 1254.75 580.712C1259.28 582.244 1287.98 573.392 1311.27 571.297C1334.56 569.201 1359.84 552.217 1359.84 552.217C1359.84 552.217 1387.68 543.051 1392.56 527.638C1397.44 512.225 1386.67 427.513 1386.67 427.513C1386.67 427.513 1378.36 388.097 1355.37 398.757Z" fill="white"/>
<path opacity="0.1" d="M1354.79 524.286C1354.79 524.286 1333.45 520.357 1340.87 526.905C1348.3 533.452 1348.26 539.188 1357.35 538.926C1366.44 538.664 1354.79 524.286 1354.79 524.286Z" fill="black"/>
<path opacity="0.1" d="M1390.85 665.162C1390.85 665.162 1381.2 671.172 1399.66 685.027C1418.11 698.882 1390.85 665.162 1390.85 665.162Z" fill="black"/>
<path opacity="0.1" d="M1372.44 714.569C1372.44 715.355 1369.03 743.378 1381.8 750.384C1394.58 757.39 1372.44 714.569 1372.44 714.569Z" fill="black"/>
<path d="M1169.61 494.94C1159.31 495.267 1137.06 498.161 1148.6 517.974C1158.8 535.508 1175.94 523.788 1185.59 514.896C1183.23 506.607 1177.52 499.464 1169.61 494.94Z" fill="#FFB0B1"/>
<path d="M1185.71 514.738L1186.14 514.333L1185.71 514.738Z" fill="#FFB0B1"/>
<path opacity="0.1" d="M1351.96 373.693C1341.03 380.568 1331.87 386.369 1330.08 387.573C1325.18 390.913 1315.85 410.516 1309.83 420.521C1305.04 428.574 1289.46 430.643 1283.59 431.154L1284.34 425.169C1297.7 419.669 1307.93 402.148 1307.93 402.148L1334.33 359.537L1343.42 367.145C1343.42 367.145 1346.84 369.764 1351.96 373.693Z" fill="black"/>
<path d="M1351.96 372.907C1341.03 379.782 1331.87 385.583 1330.08 386.801C1325.18 390.127 1315.85 409.73 1309.83 419.735C1305.04 427.788 1289.46 429.857 1283.59 430.368L1284.34 424.384C1297.7 418.884 1307.93 401.363 1307.93 401.363L1334.33 358.751L1343.42 366.333C1343.42 366.333 1346.84 368.926 1351.96 372.907Z" fill="#DCE7FF"/>
<path d="M1330.93 339.541C1330.94 347.402 1328.35 355.079 1323.51 361.554C1317.79 369.21 1309.28 374.725 1299.52 377.098C1289.76 379.472 1279.4 378.547 1270.32 374.492C1261.24 370.436 1254.04 363.518 1250.02 354.994C1246.01 346.469 1245.45 336.902 1248.44 328.029C1251.44 319.156 1257.78 311.565 1266.34 306.633C1274.89 301.7 1285.08 299.754 1295.06 301.147C1305.04 302.539 1314.15 307.179 1320.73 314.223C1327.31 321.267 1330.93 330.25 1330.93 339.541Z" fill="#FFB0B1"/>
<path opacity="0.1" d="M1404.56 470.164C1398.79 466.893 1394.08 462.24 1390.95 456.702C1388.57 452.381 1386.99 447.392 1382.94 444.327C1379.28 441.577 1374.4 440.91 1369.85 439.679C1354.89 435.606 1342.34 423.035 1341.87 408.683C1341.64 401.926 1343.93 395.182 1342.89 388.49C1342.3 384.703 1340.67 381.119 1338.14 378.08C1336.89 376.626 1335.52 375.264 1334.03 374.007C1332.04 372.278 1329.95 370.602 1328.13 368.769C1326.98 367.634 1325.98 366.382 1325.14 365.037C1324.46 363.936 1323.92 362.773 1323.51 361.567C1320.66 353.553 1323.25 344.046 1320.12 335.94L1319.95 335.495C1318.77 332.614 1316.36 329.733 1313.02 329.51C1309.68 329.288 1306.82 331.841 1303.63 332.98C1296.96 335.364 1289.76 331.304 1284.2 327.166C1278.64 323.028 1272.36 318.301 1265.29 319.217C1260.61 319.833 1256.91 322.766 1252.6 324.285C1251.63 324.632 1250.63 324.899 1249.6 325.084C1253.25 316.71 1259.95 309.767 1268.56 305.447C1277.16 301.127 1287.13 299.701 1296.76 301.413C1306.38 303.125 1315.05 307.869 1321.29 314.829C1327.53 321.789 1330.94 330.532 1330.93 339.554C1330.94 342.278 1330.63 344.996 1330.01 347.66C1330.08 347.843 1330.15 348.013 1330.23 348.197C1331.88 352.125 1333.75 356.158 1335.38 359.642L1343.42 366.346C1343.42 366.346 1346.84 368.965 1351.96 372.894C1363.1 381.537 1382.34 396.753 1392.27 406.064C1401.01 414.287 1403.74 446.161 1404.56 470.164Z" fill="black"/>
<path d="M1252.11 300.361C1254.14 296.55 1255.15 292.281 1257.58 288.667C1261.15 283.429 1267.38 280.076 1273.79 278.047C1290.5 272.743 1325.82 265.043 1336.38 278.047C1338.46 280.666 1340.18 283.573 1343.05 285.38C1345.24 286.755 1347.89 287.344 1350.29 288.379C1357.02 291.286 1361.32 297.624 1363.61 304.093C1365.9 310.562 1366.58 317.502 1368.26 324.167C1370.41 332.718 1374.18 340.824 1377.93 348.878C1382.36 358.385 1387.05 368.245 1395.59 374.963C1407.24 384.13 1409.81 397.107 1420.62 407.164C1433.43 419.106 1433.01 438.814 1426.41 454.463C1425.55 456.519 1424.56 458.666 1424.91 460.853C1425.25 463.04 1427.01 465.031 1428.68 466.772L1435.67 474.04C1419.12 477.72 1400.38 469.758 1392.67 455.786C1390.29 451.464 1388.72 446.488 1384.65 443.411C1381.01 440.661 1376.11 440.006 1371.57 438.775C1356.61 434.689 1344.06 422.105 1343.59 407.753C1343.36 401.009 1345.65 394.265 1344.62 387.587C1344.04 383.774 1342.4 380.165 1339.85 377.111C1335.94 372.409 1330.03 369.254 1326.85 364.016C1321.46 355.255 1325.55 343.875 1321.67 334.473C1320.47 331.592 1318.08 328.711 1314.74 328.489C1311.4 328.266 1308.54 330.82 1305.34 331.959C1298.68 334.342 1291.48 330.296 1285.92 326.145C1280.36 321.994 1274.08 317.279 1267 318.209C1262.32 318.812 1258.64 321.745 1254.33 323.277C1251.14 324.403 1244.68 325.411 1241.89 322.936C1236 317.947 1249.64 305.022 1252.11 300.361Z" fill="#591D4B"/>
<path opacity="0.1" d="M1396.63 451.464C1394.24 447.143 1392.67 442.167 1388.6 439.102C1384.96 436.352 1380.07 435.685 1375.51 434.454C1360.56 430.381 1348.02 417.797 1347.53 403.445C1347.3 396.701 1349.59 389.944 1348.57 383.265C1347.97 379.477 1346.33 375.893 1343.8 372.855C1339.88 368.153 1333.97 364.998 1330.8 359.76C1325.41 351.012 1329.51 339.633 1325.61 330.217C1324.43 327.349 1322.03 324.469 1318.7 324.233C1315.37 323.997 1312.48 326.577 1309.29 327.716C1302.64 330.099 1295.42 326.04 1289.88 321.902C1284.33 317.764 1278.03 313.037 1270.95 313.953C1266.27 314.569 1262.58 317.502 1258.28 319.021C1255.09 320.147 1248.62 321.169 1245.83 318.694C1239.97 313.456 1253.61 300.557 1256.06 295.921C1258.09 292.098 1259.1 287.842 1261.55 284.227C1261.68 284.031 1261.82 283.835 1261.96 283.638C1260.13 285.034 1258.55 286.687 1257.28 288.536C1254.85 292.15 1253.84 296.393 1251.81 300.23C1249.35 304.865 1235.7 317.803 1241.58 323.002C1244.42 325.49 1250.83 324.468 1254.01 323.342C1258.28 321.81 1262.01 318.877 1266.69 318.275C1273.8 317.345 1280.06 322.072 1285.61 326.21C1291.16 330.348 1298.41 334.408 1305.04 332.024C1308.23 330.885 1311.01 328.318 1314.43 328.554C1317.84 328.79 1320.12 331.658 1321.36 334.539C1325.24 343.941 1321.14 355.32 1326.53 364.081C1329.72 369.227 1335.63 372.449 1339.54 377.176C1342.08 380.23 1343.72 383.839 1344.3 387.652C1345.34 394.33 1343.05 401.074 1343.28 407.818C1343.75 422.223 1356.3 434.755 1371.26 438.84C1375.77 440.071 1380.69 440.726 1384.33 443.476C1388.42 446.553 1390.02 451.53 1392.36 455.851C1400.07 469.823 1418.8 477.785 1435.36 474.105L1432.06 470.674C1417.71 470.871 1403.18 463.354 1396.63 451.464Z" fill="black"/>
<path opacity="0.1" d="M1298.55 391.698C1296.69 394.317 1291.35 407.727 1286.9 419.434C1282.73 417.941 1278.95 408.421 1278.95 408.421L1301.17 379.324C1303.45 382.204 1301.95 386.984 1298.55 391.698Z" fill="black"/>
<path d="M1299.41 390.913C1297.54 393.532 1292.21 406.941 1287.76 418.648C1283.59 417.168 1279.8 407.635 1279.8 407.635L1302.02 378.551C1304.3 381.419 1302.81 386.212 1299.41 390.913Z" fill="#DCE7FF"/>
<path d="M1170.21 524.691L1157.89 488.929C1157.74 488.51 1157.69 488.069 1157.73 487.631C1157.77 487.193 1157.9 486.766 1158.12 486.376C1158.34 485.985 1158.64 485.638 1159.01 485.355C1159.37 485.072 1159.8 484.858 1160.25 484.725C1161.17 484.462 1162.16 484.543 1163.01 484.95C1163.87 485.357 1164.51 486.058 1164.8 486.899L1177.12 522.622L1175.9 530.1L1170.21 524.691Z" fill="#BE8B87"/>
<path opacity="0.1" d="M1159.06 485.786C1159.97 485.519 1160.97 485.597 1161.83 486.005C1162.68 486.412 1163.33 487.115 1163.62 487.96L1175.94 523.683L1175.02 529.288L1175.91 530.152L1177.14 522.675L1164.75 486.952C1164.45 486.11 1163.81 485.409 1162.96 485.002C1162.1 484.595 1161.11 484.514 1160.19 484.778C1159.42 485.008 1158.76 485.469 1158.3 486.087C1158.54 485.968 1158.8 485.867 1159.06 485.786Z" fill="white"/>
<path d="M1170.21 524.691L1177.12 522.675L1176.11 528.803L1175.9 530.152L1173.88 528.214L1170.21 524.691Z" fill="#EFC8C4"/>
<path d="M1173.88 528.214C1174 528.074 1174.15 527.958 1174.32 527.874C1174.42 527.815 1174.54 527.784 1174.65 527.784C1174.77 527.784 1174.89 527.815 1174.99 527.874C1175.09 527.981 1175.17 528.1 1175.23 528.227C1175.32 528.372 1175.45 528.495 1175.6 528.588C1175.76 528.681 1175.93 528.741 1176.11 528.764L1175.9 530.074L1173.88 528.214Z" fill="#727A9C"/>
<path d="M1157.82 501.631C1157.82 501.631 1182.53 501.5 1176.71 511.177C1170.89 520.855 1161.8 522.02 1161.8 522.02L1157.82 501.631Z" fill="#FFB0B1"/>
</g>
<defs>
<linearGradient id="paint0_linear" x1="317540" y1="607978" x2="317540" y2="194360" gradientUnits="userSpaceOnUse">
<stop stop-color="#808080" stop-opacity="0.25"/>
<stop offset="0.54" stop-color="#808080" stop-opacity="0.12"/>
<stop offset="1" stop-color="#808080" stop-opacity="0.1"/>
</linearGradient>
<clipPath id="clip0">
<rect width="1572" height="1025" fill="white"/>
</clipPath>
</defs>
</svg>
