<svg width="1571" height="1025" viewBox="0 0 1571 1025" fill="none" xmlns="http://www.w3.org/2000/svg">
<g opacity="0.6" clip-path="url(#clip0)">
<path opacity="0.1" d="M1275.31 1025C1370.78 1025 1448.17 1015.82 1448.17 1004.51C1448.17 993.188 1370.78 984.013 1275.31 984.013C1179.84 984.013 1102.45 993.188 1102.45 1004.51C1102.45 1015.82 1179.84 1025 1275.31 1025Z" fill="#98C1D9"/>
<path opacity="0.1" d="M19.6758 442.874H163.961V624.017H30.2388C29.8834 625.877 29.5422 627.749 29.1726 629.622H163.961V775.71C163.719 775.645 163.506 775.566 163.278 775.487C159.468 774.099 155.687 772.633 151.905 771.061L149.488 770.053C145.697 768.403 141.906 766.657 138.115 764.815C136.793 764.173 135.471 763.505 134.163 762.824C113.116 751.965 93.9964 738.205 77.4666 722.02C76.9833 721.588 76.5283 721.13 76.045 720.711C73.7419 718.406 71.4814 716.075 69.292 713.692L66.8752 711.073C64.2878 708.153 61.7856 705.154 59.3546 702.116C58.9992 701.671 58.658 701.225 58.2883 700.806C48.4013 688.179 40.1919 674.507 33.8356 660.081C33.6366 659.649 33.466 659.177 33.2812 658.771C31.3288 654.145 29.5991 649.474 28.0921 644.76C27.4381 642.782 26.8126 640.831 26.2724 638.775C26.0733 638.173 25.9027 637.584 25.7463 636.994C17.6713 607.963 16.7188 577.805 16.7188 547.857C16.7188 544.36 16.7188 540.851 16.7188 537.381C16.7188 525.268 16.8751 513.076 17.1026 500.898C17.1026 497.742 17.2448 494.599 17.3158 491.43C17.5149 483.39 17.7992 475.349 18.1689 467.309C18.2542 465.07 18.3679 462.844 18.4958 460.618C18.4958 459.334 18.5669 458.051 18.7091 456.768C19.0503 452.106 19.3346 447.483 19.6758 442.874Z" fill="#98C1D9"/>
<path opacity="0.1" d="M163.961 241.184H84.8167C97.682 222.636 111.739 204.813 126.912 187.809C138.669 174.504 151.081 161.54 163.961 149.048V241.184Z" fill="#98C1D9"/>
<path opacity="0.1" d="M163.961 246.789V437.269H20.1309C20.1309 436.719 20.2304 436.156 20.273 435.606C20.401 434.1 20.5289 432.594 20.6711 431.101C20.8275 429.347 20.9981 427.579 21.1829 425.863C21.3677 424.148 21.5667 422.053 21.78 420.154C21.9932 418.255 22.1923 416.33 22.434 414.431C22.6756 412.533 22.8889 410.634 23.1448 408.748C23.4007 406.862 23.6282 404.951 23.8983 403.065C24.1115 401.493 24.339 399.935 24.5665 398.364C24.8934 396.151 25.2346 393.925 25.6043 391.725C25.6043 391.397 25.7038 391.057 25.7607 390.742C28.3555 374.638 31.8911 358.674 36.3521 342.919C41.0217 326.393 46.9846 310.2 54.194 294.468C61.8563 278.01 70.8277 262.095 81.0351 246.854L163.961 246.789Z" fill="#98C1D9"/>
<path opacity="0.1" d="M198.408 442.861V624.018H506.583V442.861H198.408ZM198.408 629.61V785.178C200.171 785.519 201.92 785.846 203.654 786.121C206.014 786.54 208.36 786.92 210.762 787.247C211.217 787.313 211.687 787.378 212.184 787.418C213.122 787.562 214.089 787.68 215.028 787.797C217.402 788.099 219.762 788.347 222.136 788.544C223.259 788.649 224.396 788.74 225.534 788.819L228.277 789.015C229.77 789.12 231.249 789.199 232.713 789.238C233.623 789.238 234.533 789.316 235.471 789.343C236.182 789.343 236.893 789.343 237.632 789.343C238.371 789.343 239.423 789.343 240.319 789.343C241.542 789.343 242.764 789.343 243.973 789.343H245.608C246.83 789.343 248.053 789.343 249.261 789.238H249.347C250.185 789.238 251.038 789.238 251.891 789.133C252.128 789.146 252.365 789.146 252.602 789.133C253.313 789.133 254.024 789.133 254.706 789.042H255.204L259.966 788.701C261.53 788.57 263.108 788.4 264.701 788.243L267.942 787.889C281.129 786.187 294.17 783.632 306.967 780.242C335.713 772.856 363.833 762.524 392.565 754.955C429.714 745.199 470.757 740.407 506.654 752.336V629.61H198.408ZM506.583 241.185V0.0139691C472.843 -0.322735 439.195 3.31219 406.455 10.8305C328.42 28.8885 258.403 68.0557 198.408 118.079V241.172H213.876V246.764H198.408V437.27H506.583V246.777H277.382V241.185H506.583ZM902.418 159.721C883.112 159.092 863.919 153.461 846.561 144.766C813.365 128.136 786.851 102.456 757.223 80.7841C695.665 35.6455 619.321 8.40788 541.002 1.65085V241.185H980.937L982.031 240.124L902.418 159.721ZM942.495 153.173L984.989 196.125V141.912C970.758 143.535 958.29 147.398 942.552 153.121L942.495 153.173ZM984.989 823.809V629.61H894.443C894.201 628.785 893.959 627.947 893.675 627.108C893.945 627.947 894.172 628.785 894.428 629.61H541.059V770.054C544.414 772.345 547.726 774.755 551.01 777.204C554.55 779.823 558.047 782.586 561.559 785.296L565.099 787.994C566.791 789.303 568.497 790.613 570.217 791.844C573.629 794.393 577.074 796.907 580.552 799.387C582.273 800.696 584.036 801.875 585.784 803.106C613.545 822.656 642.83 840.299 673.402 855.892C680.254 859.384 687.168 862.793 694.144 866.119C698.793 868.306 703.47 870.479 708.161 872.588C715.213 875.757 722.321 878.812 729.486 881.754C795.546 909.068 865.399 927.811 937.05 937.447C952.963 939.612 968.938 941.315 984.974 942.554V823.796H986.396L984.989 823.809ZM541.059 246.777V437.27H985.045V246.777H541.059ZM541.059 442.861V624.018H985.045V442.861H541.059ZM1019.51 141.676V202.149L1073.74 147.333C1055.77 144.662 1037.69 142.754 1019.51 141.61V141.676ZM1019.51 442.927V624.018H1451.34V442.861L1019.51 442.927ZM1449.76 838.187L1451.28 629.61H1019.51V944.637C1047.32 945.713 1075.18 945.407 1102.96 943.72H1103.44C1116.71 942.952 1129.92 941.834 1143.06 940.368H1143.36C1213.49 932.849 1282.07 915.995 1346.95 890.332L1449.76 838.187ZM1534.61 472.692C1532.98 469.169 1531.29 465.673 1529.57 462.216C1526.36 455.668 1522.96 449.304 1519.46 442.94H1485.77V624.018H1570.96C1570.91 572.738 1556.83 520.358 1534.65 472.626L1534.61 472.692ZM1485.77 629.675V809.077C1509.77 787.889 1530.04 763.65 1544.64 735.941C1562.2 702.575 1570.23 666.446 1570.89 629.649L1485.77 629.675ZM1485.77 390.141V437.283H1516.31C1507.07 421.055 1496.89 405.296 1485.81 390.075L1485.77 390.141ZM1192.91 177.216C1190.66 176.43 1188.41 175.631 1186.15 174.859C1162.31 166.749 1137.95 160.006 1113.21 154.666L1030.21 238.566L1028.62 240.124L1029.69 241.198H1325.08C1283.94 215.113 1239.59 193.614 1192.95 177.15L1192.91 177.216ZM1333.74 246.842H1025.56L1019.51 251.949V437.27H1072.59H1072.68H1451.4V347.504C1417.14 309.339 1377.59 275.475 1333.78 246.777L1333.74 246.842Z" fill="#98C1D9"/>
<path opacity="0.1" d="M163.961 342.867V437.269H20.1309C20.1309 436.719 20.2304 436.156 20.273 435.606C20.401 434.1 20.5289 432.594 20.6711 431.101C20.8275 429.347 20.9981 427.579 21.1829 425.863C21.3677 424.148 21.5667 422.053 21.78 420.154C21.9932 418.255 22.1923 416.33 22.434 414.431C22.6756 412.533 22.8889 410.634 23.1448 408.748C23.4007 406.862 23.6282 404.951 23.8983 403.065C24.1115 401.493 24.339 399.935 24.5665 398.364C24.8934 396.151 25.2346 393.925 25.6043 391.725C25.6043 391.397 25.7038 391.057 25.7607 390.742C28.3555 374.638 31.8911 358.674 36.3521 342.919L163.961 342.867Z" fill="#98C1D9"/>
<path opacity="0.1" d="M19.6758 442.874H163.961V624.017H30.2388C29.8834 625.877 29.5422 627.749 29.1726 629.622H163.961V775.71C163.719 775.645 163.506 775.566 163.278 775.487C159.468 774.099 155.687 772.633 151.905 771.061L149.488 770.053C145.697 768.403 141.906 766.657 138.115 764.815C136.793 764.173 135.471 763.505 134.163 762.824C113.116 751.965 93.9964 738.205 77.4666 722.02C76.9833 721.588 76.5283 721.13 76.045 720.711C73.7419 718.406 71.4814 716.075 69.292 713.692L66.8752 711.073C64.2878 708.153 61.7856 705.154 59.3546 702.116C58.9992 701.671 58.658 701.225 58.2883 700.806C48.4013 688.179 40.1919 674.507 33.8356 660.081C33.6366 659.649 33.466 659.177 33.2812 658.771C31.3288 654.145 29.5991 649.474 28.0921 644.76C27.4381 642.782 26.8126 640.831 26.2724 638.775C26.0733 638.173 25.9027 637.584 25.7463 636.994C17.6713 607.963 16.7188 577.805 16.7188 547.857C16.7188 544.36 16.7188 540.851 16.7188 537.381C16.7188 525.268 16.8751 513.076 17.1026 500.898C17.1026 497.742 17.2448 494.599 17.3158 491.43C17.5149 483.39 17.7992 475.349 18.1689 467.309C18.2542 465.07 18.3679 462.844 18.4958 460.618C18.4958 459.334 18.5669 458.051 18.7091 456.768C19.0503 452.106 19.3346 447.483 19.6758 442.874Z" fill="#98C1D9"/>
<path opacity="0.1" d="M306.896 274.053V437.269H198.408V274.053H213.876V218.792H277.368V274.053H306.896Z" fill="#98C1D9"/>
<path opacity="0.1" d="M306.896 442.861H198.422V624.004H306.896V442.861Z" fill="#98C1D9"/>
<path opacity="0.1" d="M198.408 629.622H306.896V780.215C294.098 783.602 281.058 786.153 267.871 787.849L264.629 788.216C263.037 788.386 261.459 788.53 259.895 788.674C258.331 788.818 256.711 788.923 255.133 789.015H254.635C253.953 789.015 253.213 789.093 252.545 789.106H251.82C250.967 789.106 250.114 789.185 249.261 789.211C248.053 789.277 246.844 789.29 245.608 789.303C245.082 789.303 244.584 789.303 244.058 789.303C242.835 789.303 241.627 789.303 240.404 789.303H237.717C236.992 789.303 236.296 789.303 235.542 789.303L232.798 789.211C231.377 789.211 229.841 789.067 228.363 788.975L225.633 788.792L222.235 788.504C219.847 788.308 217.473 788.059 215.127 787.758L212.284 787.391L210.862 787.208C208.488 786.867 206.142 786.5 203.754 786.081C202.005 785.806 200.271 785.466 198.508 785.139L198.408 629.622Z" fill="#98C1D9"/>
<path opacity="0.1" d="M985.045 254.777H895.594V437.256H985.045V254.777Z" fill="#98C1D9"/>
<path opacity="0.1" d="M985.06 442.861V624.017H541.059V545.879H777.553V591.974H895.594V442.861H985.06Z" fill="#98C1D9"/>
<path opacity="0.1" d="M986.467 823.847H985.045V942.685C969.028 941.436 953.058 939.738 937.135 937.591C865.449 927.924 795.567 909.141 729.486 881.78C710.408 873.87 691.717 865.236 673.416 855.878C642.845 840.277 613.556 822.635 585.784 803.092C578.809 798.168 571.923 793.131 565.127 787.98C560.422 784.405 555.744 780.738 551.01 777.177C547.726 774.728 544.414 772.318 541.059 770.014V629.622H894.414C894.172 628.784 893.931 627.946 893.675 627.121C893.945 627.946 894.201 628.784 894.443 629.622H985.045V823.769C985.529 823.782 985.998 823.821 986.467 823.847Z" fill="#98C1D9"/>
<path opacity="0.1" d="M1218.34 241.184H1160.05V224.501H1186.18V174.806C1188.45 175.565 1190.7 176.346 1192.95 177.15V224.501H1218.34V241.184Z" fill="#98C1D9"/>
<path opacity="0.1" d="M1358.77 437.269H1072.62C1072.62 437.269 1072.62 437.269 1072.72 437.335L1072.59 437.269H1019.51V254.79H1034.55V389.669H1103.29V309.789H1160.07V246.789H1218.36V309.841H1275.14V389.721H1358.77V437.269Z" fill="#98C1D9"/>
<path opacity="0.1" d="M1019.51 442.861V624.017H1358.77V442.861H1019.51ZM1450.87 837.257L1451.34 693.866H1358.77V629.7H1019.51V944.636C1047.32 945.712 1075.18 945.406 1102.96 943.719V943.719H1103.44C1116.71 942.951 1129.92 941.833 1143.06 940.367H1143.36C1213.49 932.849 1282.07 915.994 1346.95 890.331" fill="#98C1D9"/>
<path opacity="0.1" d="M1491.8 629.622H1570.94C1570.25 666.406 1562.23 702.535 1544.68 735.901C1530.08 763.623 1509.8 787.862 1485.83 809.037V693.801H1491.8V629.622Z" fill="#98C1D9"/>
<path opacity="0.1" d="M1570.99 624.017H1491.8V472.626H1534.65C1556.83 520.357 1570.91 572.737 1570.99 624.017Z" fill="#98C1D9"/>
<path opacity="0.1" d="M985.059 305.507H937.135V362.719H985.059V305.507Z" fill="#98C1D9"/>
<path opacity="0.1" d="M985.059 424.095H937.135V437.269H985.059V424.095Z" fill="#98C1D9"/>
<path opacity="0.1" d="M985.059 442.861H937.135V481.295H985.059V442.861Z" fill="#98C1D9"/>
<path opacity="0.1" d="M985.059 542.684H937.135V599.896H985.059V542.684Z" fill="#98C1D9"/>
<path opacity="0.1" d="M985.059 661.273H937.135V718.485H985.059V661.273Z" fill="#98C1D9"/>
<path opacity="0.1" d="M985.045 823.769C985.528 823.769 985.997 823.769 986.467 823.847H985.045V837.139H937.135V779.861H985.045V823.769Z" fill="#98C1D9"/>
<path opacity="0.1" d="M985.045 898.424V942.619C969.028 941.371 953.058 939.673 937.135 937.525V898.424H985.045Z" fill="#98C1D9"/>
<path opacity="0.1" d="M746.447 619.814H541.059V624.017H746.447V619.814Z" fill="#98C1D9"/>
<path opacity="0.1" d="M746.447 629.609H541.059V645.716H746.447V629.609Z" fill="#98C1D9"/>
<path opacity="0.1" d="M746.447 698.515H541.059V724.417H746.447V698.515Z" fill="#98C1D9"/>
<path opacity="0.1" d="M746.433 777.216V803.118H585.784C578.809 798.212 571.918 793.174 565.113 788.006C560.408 784.431 555.744 780.765 550.996 777.216H746.433Z" fill="#98C1D9"/>
<path opacity="0.1" d="M746.432 855.904V881.78H729.472C710.412 873.862 691.727 865.223 673.416 855.865L746.432 855.904Z" fill="#98C1D9"/>
<path opacity="0.1" d="M1143.4 460.421H1102.97V497.663H1143.4V460.421Z" fill="#98C1D9"/>
<path opacity="0.1" d="M267.97 286.899H227.538V324.141H267.97V286.899Z" fill="#98C1D9"/>
<path opacity="0.1" d="M267.97 373.405H227.538V410.647H267.97V373.405Z" fill="#98C1D9"/>
<path opacity="0.1" d="M267.97 459.91H227.538V497.153H267.97V459.91Z" fill="#98C1D9"/>
<path opacity="0.1" d="M267.97 546.403H227.538V583.645H267.97V546.403Z" fill="#98C1D9"/>
<path opacity="0.1" d="M267.97 632.909H227.538V670.151H267.97V632.909Z" fill="#98C1D9"/>
<path opacity="0.1" d="M267.97 719.414H227.538V756.657H267.97V719.414Z" fill="#98C1D9"/>
<path opacity="0.1" d="M1297.76 460.421H1257.32V497.663H1297.76V460.421Z" fill="#98C1D9"/>
<path opacity="0.1" d="M1143.4 552.283H1102.97V589.525H1143.4V552.283Z" fill="#98C1D9"/>
<path opacity="0.1" d="M1297.76 552.283H1257.32V589.525H1297.76V552.283Z" fill="#98C1D9"/>
<path opacity="0.1" d="M1143.4 644.131H1102.97V681.373H1143.4V644.131Z" fill="#98C1D9"/>
<path opacity="0.1" d="M1297.76 644.131H1257.32V681.373H1297.76V644.131Z" fill="#98C1D9"/>
<path opacity="0.1" d="M1143.4 735.993H1102.97V773.235H1143.4V735.993Z" fill="#98C1D9"/>
<path opacity="0.1" d="M1297.76 735.993H1257.32V773.235H1297.76V735.993Z" fill="#98C1D9"/>
<path opacity="0.1" d="M1143.4 827.854H1102.97V865.097H1143.4V827.854Z" fill="#98C1D9"/>
<path opacity="0.1" d="M1297.76 827.854H1257.32V865.097H1297.76V827.854Z" fill="#98C1D9"/>
<path opacity="0.1" d="M1102.97 943.719V919.703H1143.39V940.301L1102.97 943.719Z" fill="#98C1D9"/>
<path opacity="0.1" d="M25.5901 390.716V412.022H163.961V390.716H25.5901ZM39.3803 410.686H28.0922V392.026H39.4656L39.3803 410.686ZM53.1562 410.686H41.7829V392.026H53.1562V410.686ZM66.9038 410.686H55.5304V392.026H66.9038V410.686ZM80.6797 410.686H69.3206V392.026H80.6939L80.6797 410.686ZM94.4415 410.686H83.0681V392.026H94.4415V410.686ZM108.217 410.686H96.8441V392.026H108.217V410.686ZM121.993 410.686H110.62V392.026H121.993V410.686ZM135.755 410.686H124.382V392.026H135.755V410.686ZM149.517 410.686H138.144V392.026H149.517V410.686ZM163.279 410.686H151.905V392.026H163.279V410.686Z" fill="#98C1D9"/>
<path opacity="0.1" d="M25.5901 452.708V474.014H163.961V452.708H25.5901ZM39.3803 472.665H28.0922V454.057H39.4656L39.3803 472.665ZM53.1562 472.665H41.7829V454.057H53.1562V472.665ZM66.9038 472.665H55.5304V454.057H66.9038V472.665ZM80.6797 472.665H69.3206V454.057H80.6939L80.6797 472.665ZM94.4415 472.665H83.0681V454.057H94.4415V472.665ZM108.217 472.665H96.8441V454.057H108.217V472.665ZM121.993 472.665H110.62V454.057H121.993V472.665ZM135.755 472.665H124.382V454.057H135.755V472.665ZM149.517 472.665H138.144V454.057H149.517V472.665ZM163.279 472.665H151.905V454.057H163.279V472.665Z" fill="#98C1D9"/>
<path opacity="0.1" d="M25.5901 514.726V536.071H163.961V514.726H25.5901ZM39.3803 534.683H28.0922V516.062H39.4656L39.3803 534.683ZM53.1562 534.683H41.7829V516.062H53.1562V534.683ZM66.9038 534.683H55.5304V516.062H66.9038V534.683ZM80.6797 534.683H69.3206V516.062H80.6939L80.6797 534.683ZM94.4415 534.683H83.0681V516.062H94.4415V534.683ZM108.217 534.683H96.8441V516.062H108.217V534.683ZM121.993 534.683H110.62V516.062H121.993V534.683ZM135.755 534.683H124.382V516.062H135.755V534.683ZM149.517 534.683H138.144V516.062H149.517V534.683ZM163.279 534.683H151.905V516.062H163.279V534.683Z" fill="#98C1D9"/>
<path opacity="0.1" d="M25.5901 576.744V598.023H163.961V576.744H25.5901ZM39.3803 596.701H28.0922V578.067H39.4656L39.3803 596.701ZM53.1562 596.701H41.7829V578.067H53.1562V596.701ZM66.9038 596.701H55.5304V578.067H66.9038V596.701ZM80.6797 596.701H69.3206V578.067H80.6939L80.6797 596.701ZM94.4415 596.701H83.0681V578.067H94.4415V596.701ZM108.217 596.701H96.8441V578.067H108.217V596.701ZM121.993 596.701H110.62V578.067H121.993V596.701ZM135.755 596.701H124.382V578.067H135.755V596.701ZM149.517 596.701H138.144V578.067H149.517V596.701ZM163.279 596.701H151.905V578.067H163.279V596.701Z" fill="#98C1D9"/>
<path opacity="0.1" d="M26.1873 638.749C26.7417 640.753 27.3672 642.756 28.0212 644.734V640.085H39.3945V658.706H33.3098C33.4946 659.138 33.6794 659.61 33.8643 660.016H163.961V638.749H26.1873ZM53.1989 658.706H41.8256V640.085H53.1989V658.706ZM66.9465 658.706H55.5731V640.085H66.9465V658.706ZM80.7224 658.706H69.3207V640.085H80.694L80.7224 658.706ZM94.4842 658.706H83.1108V640.085H94.4842V658.706ZM108.26 658.706H96.8868V640.085H108.26V658.706ZM122.036 658.706H110.663V640.085H122.036V658.706ZM135.798 658.706H124.424V640.085H135.798V658.706ZM149.56 658.706H138.186V640.085H149.56V658.706ZM163.321 658.706H151.948V640.085H163.321V658.706Z" fill="#98C1D9"/>
<path opacity="0.1" d="M58.3169 700.767C58.6723 701.186 59.0135 701.658 59.3831 702.077H66.9038V711.021C67.7141 711.911 68.5103 712.802 69.3348 713.64V702.024H80.7082V720.711H76.102C76.5569 721.143 76.9976 721.601 77.5236 722.021H164.004V700.767H58.3169ZM94.4415 720.711H83.0681V702.103H94.4415V720.711ZM108.217 720.711H96.8441V702.103H108.217V720.711ZM121.993 720.711H110.62V702.103H121.993V720.711ZM135.755 720.711H124.382V702.103H135.755V720.711ZM149.517 720.711H138.144V702.103H149.517V720.711ZM163.279 720.711H151.905V702.103H163.279V720.711Z" fill="#98C1D9"/>
<path opacity="0.1" d="M134.22 762.772C135.513 763.453 136.836 764.082 138.172 764.763V764.108H149.545V770.001L151.962 771.035V764.108H163.336V775.435C163.554 775.535 163.782 775.614 164.018 775.671V762.772H134.22Z" fill="#98C1D9"/>
<path opacity="0.1" d="M1072.62 437.269H1072.71H1072.62ZM985.045 823.756H986.467H985.045ZM893.675 627.108C893.945 627.946 894.172 628.784 894.428 629.609C894.201 628.784 893.959 627.946 893.675 627.108ZM1072.62 437.23H1072.71H1072.62ZM213.933 241.145V246.736H277.439V241.145H213.933ZM985.045 823.756H986.467H985.045ZM893.675 627.108C893.945 627.946 894.172 628.784 894.428 629.609C894.201 628.784 893.959 627.946 893.675 627.108ZM1072.62 437.23H1072.71H1072.62ZM985.045 823.716H986.467H985.045ZM893.675 627.108C893.945 627.946 894.172 628.784 894.428 629.609C894.201 628.784 893.959 627.946 893.675 627.108Z" fill="#98C1D9"/>
<path opacity="0.1" d="M188.698 995.995C265.204 995.995 327.225 986.819 327.225 975.501C327.225 964.182 265.204 955.007 188.698 955.007C112.191 955.007 50.1707 964.182 50.1707 975.501C50.1707 986.819 112.191 995.995 188.698 995.995Z" fill="#98C1D9"/>
<path d="M193.162 582.912H184.248V767.774H193.162V582.912Z" fill="#535461"/>
<path d="M249.176 767.211L248.621 775.54L247.825 787.325L247.498 792.223L246.716 804.008L246.375 808.906L245.579 820.691L236.594 954.352C236.204 960.103 233.449 965.501 228.89 969.447C224.331 973.393 218.312 975.59 212.056 975.592H165.34C159.086 975.59 153.068 973.392 148.512 969.446C143.955 965.5 141.203 960.102 140.816 954.352L131.874 820.6L131.078 808.814L130.751 803.917L129.955 792.131L129.628 787.234L128.832 775.448L128.263 767.12C128.164 765.517 128.422 763.912 129.021 762.404C129.619 760.896 130.546 759.517 131.744 758.351C132.942 757.185 134.387 756.256 135.988 755.623C137.59 754.989 139.315 754.664 141.058 754.666H236.608C238.345 754.68 240.06 755.021 241.647 755.669C243.235 756.317 244.662 757.258 245.839 758.434C247.017 759.609 247.921 760.995 248.495 762.504C249.068 764.014 249.3 765.616 249.176 767.211V767.211Z" fill="#3F3D56"/>
<path d="M248.621 775.54L247.825 787.286H129.571L128.775 775.54H248.621Z" fill="#9D9CB5"/>
<path d="M247.498 792.184L246.716 803.943H130.694L129.898 792.184H247.498Z" fill="#9D9CB5"/>
<path d="M246.375 808.854L245.593 820.6H131.817L131.021 808.854H246.375Z" fill="#9D9CB5"/>
<path d="M115.169 652.198C167.074 686.795 188.741 740.903 188.741 740.903C188.741 740.903 126.187 738.926 74.268 704.329C22.3487 669.732 0.725098 615.636 0.725098 615.636C0.725098 615.636 63.2501 617.601 115.169 652.198Z" fill="#98C1D9"/>
<path d="M0.682373 615.636C0.682373 615.636 65.6242 648.832 86.4516 676.319C107.279 703.805 188.741 740.903 188.741 740.903" stroke="#535461" stroke-width="2" stroke-miterlimit="10"/>
<path d="M148.678 582.506C176.927 601.324 188.741 630.774 188.741 630.774C188.741 630.774 154.692 629.701 126.429 610.883C98.1662 592.065 86.3806 562.602 86.3806 562.602C86.3806 562.602 120.415 563.675 148.678 582.506Z" fill="#98C1D9"/>
<path d="M86.3806 562.602C86.3806 562.602 121.723 580.673 133.054 595.627C144.385 610.582 188.741 630.774 188.741 630.774" stroke="#535461" stroke-width="2" stroke-miterlimit="10"/>
<path d="M229.756 629.281C197.299 662.137 190.432 705.075 190.432 705.075C190.432 705.075 236.196 694.73 268.624 661.862C301.052 628.993 307.947 586.068 307.947 586.068C307.947 586.068 262.212 596.426 229.756 629.281Z" fill="#98C1D9"/>
<path d="M307.976 586.081C307.976 586.081 265.695 619.761 254.948 642.966C244.2 666.17 190.432 705.075 190.432 705.075" stroke="#535461" stroke-width="2" stroke-miterlimit="10"/>
<path d="M1421.2 617.718C1421.2 617.718 1397.73 510.156 1406.71 496.773C1406.71 496.773 1407.04 484.333 1406.5 468.475C1406.5 467.872 1406.5 467.27 1406.5 466.654C1408.08 467.625 1409.73 468.5 1411.43 469.273C1419.71 473.191 1429.21 474.321 1438.3 472.468L1431.19 465.175C1429.49 463.433 1427.71 461.547 1427.34 459.242C1426.97 456.938 1427.99 454.882 1428.88 452.826C1435.63 437.112 1435.98 417.352 1422.98 405.356C1411.99 395.273 1409.31 382.257 1397.39 373.051C1388.67 366.307 1383.88 356.42 1379.36 346.861C1375.53 338.781 1371.68 330.636 1369.49 322.072C1367.79 315.381 1367.1 308.453 1364.76 301.919C1362.41 295.385 1358.02 289.033 1351.15 286.113C1348.71 285.079 1345.99 284.489 1343.76 283.114C1340.83 281.294 1339.07 278.335 1336.95 275.742C1326.19 262.647 1290.15 270.36 1273.09 275.677C1268.45 277.015 1264.16 279.207 1260.46 282.119L1260.62 281.884C1260.75 281.687 1260.91 281.491 1261.05 281.294C1259.18 282.685 1257.57 284.343 1256.27 286.205C1253.78 289.832 1252.75 294.062 1250.67 297.99C1248.17 302.639 1234.25 315.616 1240.23 320.841C1240.65 321.192 1241.13 321.475 1241.66 321.679C1243.9 322.541 1246.38 322.769 1248.76 322.334L1248.51 322.897C1246.46 327.507 1245.42 332.44 1245.42 337.42C1245.42 358.935 1264.69 376.377 1288.47 376.377C1292.94 376.381 1297.39 375.75 1301.65 374.505C1301.75 375.002 1301.84 375.5 1301.94 375.997C1301.94 376.194 1302.01 376.39 1302.03 376.587L1301.28 377.556C1301.24 377.496 1301.2 377.439 1301.15 377.386L1278.83 406.116C1275.42 408.329 1255.77 421.424 1254.66 431.245C1253.5 441.996 1252.33 454.581 1252.33 454.581L1252.18 457.278C1251.2 458.029 1250.06 458.576 1248.83 458.881C1247.61 459.186 1246.32 459.243 1245.07 459.046C1238.1 457.998 1238.1 482.617 1238.1 482.617C1238.1 482.617 1233.47 486.546 1230.28 483.141C1227.1 479.736 1218.68 491.273 1218.68 491.273L1165.94 493.368L1164.73 493.434L1161.89 485.328C1161.58 484.473 1160.92 483.764 1160.05 483.354C1159.18 482.945 1158.17 482.868 1157.24 483.141C1157.02 483.208 1156.8 483.291 1156.6 483.39L1156.4 483.494L1156.03 483.73L1155.84 483.887C1155.74 483.973 1155.65 484.064 1155.56 484.162L1155.39 484.346L1155.3 484.424C1154.98 484.842 1154.76 485.325 1154.67 485.835C1154.58 486.344 1154.62 486.866 1154.79 487.358L1157.24 494.311C1147.06 496.197 1136.65 501.513 1145.14 516.153L1102.12 508.833L1116.04 519.597L1187.89 533.256C1186.94 534.827 1187.56 537.105 1190.53 540.314C1203.33 554.155 1226.64 557.914 1236.03 558.883C1238.5 563.988 1241.6 568.82 1245.25 573.287L1244.44 587.076C1244.44 587.076 1220.69 692.177 1216.34 697.506C1218.53 695.214 1220.54 692.776 1222.35 690.213C1215.45 711.806 1205.82 741.362 1203.29 745.788C1199.22 752.859 1195.45 781.472 1200.09 783.305C1201.51 783.868 1205.57 783.593 1211.37 783.187V785.557L1211.12 875.376C1211.12 875.376 1212.28 930.467 1209.09 935.718C1205.89 940.969 1205.03 951.982 1205.03 951.982C1205.03 951.982 1192.24 973.707 1182.1 982.441C1182.03 982.509 1181.96 982.57 1181.88 982.624L1181.56 980.582C1181.56 980.582 1169.38 994.75 1142.42 993.951C1142.42 993.951 1126.2 1003.67 1150.26 1004.19C1174.31 1004.72 1205.03 1003.41 1205.03 1003.41C1205.03 1003.41 1226.49 973.288 1244.46 977.216V1000.04H1249.96V976.849C1252.51 975.302 1254.69 973.294 1256.38 970.946C1258.06 968.598 1259.21 965.96 1259.75 963.191C1260.23 960.337 1259.88 957.42 1258.75 954.726C1257.63 952.032 1255.76 949.656 1253.33 947.831C1252.24 946.922 1251.36 945.816 1250.76 944.581C1250.15 943.346 1249.83 942.009 1249.82 940.655L1249.62 940.812C1249.62 940.354 1249.49 939.882 1249.43 939.398C1247.85 927.612 1245.88 903.295 1252.86 885.302C1262.43 860.631 1265.33 826.27 1258.36 805.815C1256.11 799.277 1254.27 792.627 1252.83 785.898C1252.66 785.047 1252.5 784.235 1252.36 783.475C1257.12 784.069 1261.84 784.943 1266.48 786.094C1282.61 790.193 1317.91 790.952 1348.05 790.73C1348.13 791.489 1348.21 792.288 1348.31 793.087C1348.85 798.639 1349.97 804.13 1351.66 809.482C1355.45 819.958 1357.18 866.144 1357.18 866.144C1357.18 866.144 1362.06 904.12 1359.4 919.572C1357.98 928.162 1356.56 936.792 1355.75 945.461V945.631C1355.75 945.631 1347.76 966.583 1341.91 977.963C1341.77 978.251 1341.61 978.539 1341.47 978.814C1339.91 978.944 1338.38 979.257 1336.91 979.743C1336.91 979.743 1329.07 994.148 1321.27 996.531C1313.46 998.915 1316.05 1006.76 1333.72 1003.88C1351.39 1001 1378.08 998.64 1378.08 998.64L1379.23 983.947L1384.66 977.687L1383.24 992.341L1389.03 991.293L1388.26 973.471L1397.14 963.231C1397.14 963.231 1407.88 954.431 1391.93 937.119V937.499C1391.76 937.25 1391.6 936.988 1391.41 936.739V936.661C1388.77 932.889 1386.67 925.857 1390.52 913.378C1397.49 890.828 1401.54 870.361 1401.54 870.361C1401.54 870.361 1417.09 815.532 1398.4 789.591H1399.22C1397.3 785.94 1395.95 782.062 1395.2 778.067C1395.1 777.596 1395.02 777.111 1394.94 776.613C1408.77 775.88 1422.35 773.575 1433.43 768.599C1433.38 768.547 1426.71 638.435 1421.2 617.718ZM1245.58 526.97V527.232L1242.74 527.363L1245.58 526.97ZM1235.83 528.214C1235.36 528.309 1234.92 528.502 1234.55 528.777C1233.33 530.37 1232.56 532.221 1232.32 534.159L1227.88 533.242C1227.88 533.242 1224.77 532.627 1220.29 531.933L1218.17 529.969C1224 529.523 1230.06 528.869 1235.83 528.214V528.214Z" fill="url(#paint0_linear)"/>
<path d="M1382.59 973.654L1380.89 992.21L1386.57 991.162L1385.71 971.035L1382.59 973.654Z" fill="#1D2366"/>
<path d="M1253.17 885.551C1246.33 903.491 1248.27 927.704 1249.8 939.463C1250.37 943.811 1250.9 946.456 1250.9 946.456C1250.9 946.456 1240.68 967.906 1239.82 968.718C1238.97 969.53 1209.74 985.964 1209.74 985.964L1189.31 996.951C1189.31 996.951 1168.58 988.583 1178.52 985.702C1180.55 984.951 1182.38 983.803 1183.88 982.337C1193.83 973.628 1206.33 951.982 1206.33 951.982C1206.33 951.982 1207.18 940.996 1210.31 935.771C1213.44 930.546 1212.3 875.638 1212.3 875.638L1212.54 786.134V774.466L1251.42 774.728C1251.67 778.689 1252.23 782.628 1253.1 786.513C1254.5 793.22 1256.31 799.848 1258.52 806.365C1265.37 826.781 1262.53 860.972 1253.17 885.551Z" fill="#FFB0B1"/>
<path opacity="0.1" d="M1250.9 946.456C1250.9 946.456 1240.68 967.906 1239.82 968.718C1238.97 969.53 1209.74 985.964 1209.74 985.964L1189.31 996.95C1189.31 996.95 1168.58 988.583 1178.52 985.702C1180.55 984.951 1182.38 983.803 1183.88 982.336L1184.76 988.059L1191.57 987.797L1249.86 939.49C1250.37 943.811 1250.9 946.456 1250.9 946.456Z" fill="black"/>
<path d="M1250.19 940.707L1191.57 989.342L1184.76 989.604L1183.34 980.438C1183.34 980.438 1171.43 994.554 1144.95 993.768C1144.95 993.768 1129.06 1003.45 1152.62 1003.97C1176.17 1004.49 1206.26 1003.18 1206.26 1003.18C1206.26 1003.18 1227.27 973.065 1244.86 976.994V999.74H1250.26V976.784C1252.77 975.227 1254.91 973.217 1256.56 970.877C1258.21 968.536 1259.32 965.913 1259.84 963.165C1260.31 960.335 1259.98 957.441 1258.88 954.762C1257.78 952.083 1255.95 949.71 1253.57 947.87C1252.51 946.952 1251.66 945.842 1251.08 944.611C1250.49 943.379 1250.19 942.051 1250.19 940.707V940.707Z" fill="#1D2366"/>
<path d="M1387.99 913.522C1384.21 925.962 1386.27 932.968 1388.86 936.727V936.805C1392.17 941.446 1394.48 946.636 1395.65 952.087L1395.88 953.266L1369.21 989.08L1354.74 994.318C1354.74 994.318 1331.46 986.998 1335.71 984.903C1336.78 984.392 1338.44 981.669 1340.35 977.91C1346.04 966.583 1353.88 945.684 1353.88 945.684V945.513C1354.71 936.884 1356.02 928.28 1357.47 919.716C1360.07 904.303 1355.29 866.472 1355.29 866.472C1355.29 866.472 1353.58 820.469 1349.89 810.006C1348.22 804.686 1347.11 799.231 1346.58 793.716C1345.81 787.168 1345.64 781.773 1345.64 781.773C1345.64 781.773 1360.96 762.131 1389.06 783.345C1391.3 785.036 1393.28 787.011 1394.93 789.211C1414.33 814.642 1398.71 870.662 1398.71 870.662C1398.71 870.662 1394.8 891.038 1387.99 913.522Z" fill="#FFB0B1"/>
<path opacity="0.1" d="M1395.92 953.265L1369.25 989.08L1354.78 994.318C1354.78 994.318 1331.51 986.998 1335.76 984.903C1336.82 984.392 1338.49 981.669 1340.39 977.91C1350.24 977.832 1355.35 986.474 1355.35 986.474L1367.83 984.641C1367.83 984.641 1384.29 954.837 1387.99 953.017C1391.69 951.196 1388.56 939.411 1388.56 939.411V936.412C1388.66 936.517 1388.74 936.635 1388.86 936.739V936.818C1392.17 941.458 1394.48 946.649 1395.65 952.1L1395.92 953.265Z" fill="black"/>
<path d="M1356.2 987.247C1356.2 987.247 1349.09 975.226 1335.47 979.665C1335.47 979.665 1327.81 994.07 1320.15 996.401C1312.48 998.731 1315.04 1006.59 1332.36 1003.72C1349.67 1000.85 1375.78 998.483 1375.78 998.483L1376.91 983.829L1394.51 963.178C1394.51 963.178 1405.01 954.418 1389.4 937.172V940.171C1389.4 940.171 1392.52 951.956 1388.83 953.776C1385.13 955.596 1368.73 985.414 1368.73 985.414L1356.2 987.247Z" fill="#1D2366"/>
<path opacity="0.1" d="M1251.47 774.702C1251.71 778.663 1252.27 782.602 1253.14 786.487C1237.14 784.327 1222.28 785.4 1212.54 786.107V774.44L1251.47 774.702Z" fill="black"/>
<path opacity="0.1" d="M1396.5 792.472C1396.5 792.472 1373.76 793.493 1346.63 793.703C1345.86 787.155 1345.69 781.76 1345.69 781.76C1345.69 781.76 1361.02 762.118 1389.11 783.331C1391.36 785.023 1393.33 786.998 1394.98 789.198C1395.42 790.314 1395.93 791.407 1396.5 792.472V792.472Z" fill="black"/>
<path d="M1396.5 790.115C1396.5 790.115 1296.87 794.554 1266.51 786.71C1236.14 778.866 1206.04 785.662 1201.51 783.842C1196.97 782.022 1200.66 753.514 1204.64 746.456C1208.62 739.398 1230.45 668.017 1230.45 668.017L1251.47 567.106L1273.6 561.488L1275.17 561.082L1313.74 551.287L1342 544.098C1342 544.098 1398.2 746.194 1393.38 761.096C1391.63 766.802 1391.34 772.806 1392.55 778.63C1393.29 782.608 1394.62 786.473 1396.5 790.115V790.115Z" fill="#1D2366"/>
<path d="M1178.22 498.096C1178.22 498.096 1158.32 517.738 1173.39 528.685C1188.46 539.633 1198.37 529.733 1198.37 529.733L1178.22 498.096Z" fill="#C7DAF5"/>
<path opacity="0.1" d="M1178.22 498.096C1178.22 498.096 1158.32 517.738 1173.39 528.685C1188.46 539.633 1198.37 529.733 1198.37 529.733L1178.22 498.096Z" fill="black"/>
<path d="M1339.03 368.952C1339.03 368.952 1336.69 370.995 1333.18 374.007C1328.18 378.315 1320.77 384.614 1314.2 389.891C1305.11 397.185 1297.6 402.541 1300.29 397.971C1302.97 393.401 1302.46 385.439 1301.12 377.988C1301.03 377.49 1300.94 376.993 1300.84 376.508C1299.73 371.036 1298.27 365.631 1296.45 360.323C1296.45 360.323 1311.15 342.828 1319.28 335.927C1322.31 333.308 1324.43 332.234 1324.55 334.054C1324.7 336.503 1326.69 341.911 1329.16 347.647C1329.23 347.83 1329.3 348 1329.39 348.184C1331.04 352.112 1332.9 356.145 1334.53 359.629C1337.04 364.971 1339.03 368.952 1339.03 368.952Z" fill="#FFB0B1"/>
<path opacity="0.1" d="M1329.39 348.184C1328.01 355.028 1324.65 361.404 1319.68 366.647C1314.71 371.89 1308.3 375.807 1301.12 377.988C1299.99 372.01 1298.43 366.109 1296.45 360.323C1296.45 360.323 1324.13 327.389 1324.55 334.054C1324.65 336.581 1326.81 342.186 1329.39 348.184Z" fill="black"/>
<path opacity="0.1" d="M1298.37 386.788L1301.95 382.139C1301.95 382.139 1304.32 395.47 1313.05 389.59C1321.78 383.71 1322.21 433.838 1322.21 433.838L1312.84 562.863L1245.14 559.131L1247.06 496.786L1254.72 465.358L1273.67 419.669L1284.95 404.571L1298.37 386.788Z" fill="black"/>
<path d="M1322.21 434.637L1313.68 551.301L1312.78 563.662L1275.04 561.58L1273.62 561.502L1245.18 559.93L1247.1 497.572L1254.76 466.144L1273.71 420.455L1284.99 405.357L1298.41 387.508L1301.99 382.872C1301.99 382.872 1304.37 396.203 1313.09 390.323L1313.28 390.206C1321.81 385.229 1322.21 434.637 1322.21 434.637Z" fill="#1D2366"/>
<path d="M1255.72 455.222C1255.72 455.222 1252.32 461.77 1245.49 460.709C1238.67 459.648 1238.68 484.28 1238.68 484.28C1238.68 484.28 1234.15 488.209 1231.02 484.804C1227.89 481.399 1219.65 492.91 1219.65 492.91L1167.99 495.005C1167.99 495.005 1190.97 504.682 1186.47 533.963C1186.47 533.963 1264.52 529.51 1267.08 522.714C1269.63 515.918 1255.72 455.222 1255.72 455.222Z" fill="white"/>
<path opacity="0.03" d="M1255.72 455.222C1255.72 455.222 1252.32 461.77 1245.49 460.709C1238.67 459.648 1238.68 484.28 1238.68 484.28C1238.68 484.28 1234.15 488.209 1231.02 484.804C1227.89 481.399 1219.65 492.91 1219.65 492.91L1167.99 495.005C1167.99 495.005 1190.97 504.682 1186.47 533.963C1186.47 533.963 1264.52 529.51 1267.08 522.714C1269.63 515.918 1255.72 455.222 1255.72 455.222Z" fill="black"/>
<path d="M1105.57 510.392L1119.19 521.103L1231.31 542.802L1217.4 529.733L1105.57 510.392Z" fill="white"/>
<path d="M1298.58 390.913C1296.72 393.532 1291.39 406.941 1286.94 418.648C1283.23 428.404 1280.13 436.981 1280.13 436.981C1280.13 436.981 1272.89 480.378 1269.19 488.222C1265.5 496.066 1267.5 526.656 1267.5 526.656L1253.73 602.201C1253.73 602.201 1247.49 641.159 1237.85 664.429C1228.34 687.332 1217.74 698.07 1217.42 698.41C1221.68 693.094 1244.93 588.412 1244.93 588.412L1252.6 456.388C1252.6 456.388 1253.73 443.843 1254.86 433.118C1256 422.393 1279.03 407.753 1279.03 407.753L1301.24 378.669C1303.47 381.419 1301.98 386.212 1298.58 390.913Z" fill="white"/>
<path d="M1240.68 560.585C1240.68 560.585 1207.98 559.275 1192.14 541.754C1176.3 524.233 1228.75 534.762 1228.75 534.762L1242.38 537.643L1240.68 560.585Z" fill="#FFB0B1"/>
<path opacity="0.1" d="M1393.38 761.109C1391.63 766.815 1391.34 772.819 1392.55 778.643C1356.88 780.974 1318.73 772.096 1318.73 772.096C1311.62 778.119 1292.89 786.998 1292.89 786.998L1282.69 670.452C1276.16 654.738 1273.6 572.41 1273.6 572.41C1273.6 572.41 1274.18 568.101 1275.02 561.646C1275.02 561.488 1275.02 561.318 1275.09 561.161C1277.64 543.129 1282.69 509.279 1285.16 504.708C1288.57 498.423 1274.67 481.7 1274.67 481.7L1280.99 432.005L1281.76 426.007C1295.1 420.521 1305.32 402.999 1305.32 402.999L1313.17 390.336C1321.7 385.295 1322.14 434.702 1322.14 434.702L1313.61 551.366L1341.87 544.177C1341.87 544.177 1398.2 746.207 1393.38 761.109Z" fill="black"/>
<path d="M1429.98 769.162C1391.1 786.945 1320.43 770.472 1320.43 770.472C1313.32 776.496 1294.6 785.374 1294.6 785.374L1284.38 668.828C1277.87 653.114 1275.31 570.786 1275.31 570.786C1275.31 570.786 1283.52 509.357 1286.94 503.085C1287.93 501.251 1287.45 498.528 1286.27 495.594C1280.47 481.633 1278.33 466.605 1280.04 451.739L1282.77 430.381L1283.52 424.397C1296.87 418.897 1307.1 401.376 1307.1 401.376L1314.2 389.904L1327.28 368.769L1333.48 358.764L1334.53 359.642L1342.57 366.346C1342.57 366.346 1345.98 368.965 1351.1 372.894C1362.23 381.537 1381.46 396.753 1391.39 406.064C1400.12 414.261 1402.87 446.147 1403.67 470.151C1404.2 485.956 1403.88 498.344 1403.88 498.344C1395.08 511.688 1418.1 618.818 1418.1 618.818C1423.46 639.522 1429.98 769.162 1429.98 769.162Z" fill="white"/>
<path opacity="0.03" d="M1355.35 401.114C1355.35 401.114 1328.66 447.902 1331.76 465.685C1334.86 483.468 1343.68 503.595 1339.42 508.296C1337.96 510.078 1336.08 511.523 1333.91 512.521C1331.74 513.518 1329.35 514.04 1326.93 514.045C1322.66 514.307 1311.29 521.627 1311.29 522.413C1311.29 523.199 1300.78 523.199 1291.39 526.865C1281.99 530.532 1268.11 532.614 1268.11 532.614C1268.11 532.614 1241.1 531.828 1238.59 534.185C1236.07 536.542 1233.48 550.646 1238.87 561.894C1244.26 573.143 1250.24 581.537 1254.76 583.069C1259.29 584.601 1287.97 575.749 1311.25 573.654C1334.52 571.558 1359.78 554.574 1359.78 554.574C1359.78 554.574 1387.6 545.408 1392.48 529.995C1397.36 514.582 1386.52 429.87 1386.52 429.87C1386.52 429.87 1378.34 390.389 1355.35 401.114Z" fill="black"/>
<path opacity="0.03" d="M1351.94 397.185C1351.94 397.185 1325.25 443.987 1328.38 461.757C1331.51 479.527 1340.29 499.667 1336.03 504.381C1334.57 506.164 1332.69 507.612 1330.52 508.609C1328.35 509.607 1325.97 510.127 1323.54 510.13C1319.28 510.392 1307.91 517.712 1307.91 518.498C1307.91 519.283 1297.4 519.283 1288 522.937C1278.61 526.59 1264.73 528.686 1264.73 528.686C1264.73 528.686 1237.72 527.9 1235.22 530.257C1232.71 532.614 1230.1 546.73 1235.5 557.966C1240.9 569.202 1246.87 577.609 1251.39 579.141C1255.92 580.673 1284.6 571.821 1307.88 569.738C1331.15 567.656 1356.41 550.646 1356.41 550.646C1356.41 550.646 1384.22 541.479 1389.04 526.08C1393.86 510.68 1383.08 425.942 1383.08 425.942C1383.08 425.942 1374.92 386.474 1351.94 397.185Z" fill="black"/>
<path d="M1354.51 398.757C1354.51 398.757 1327.82 445.558 1330.95 463.328C1334.08 481.098 1342.87 501.238 1338.61 505.939C1337.16 507.727 1335.27 509.178 1333.1 510.178C1330.93 511.178 1328.54 511.699 1326.12 511.701C1321.85 511.963 1310.48 519.283 1310.48 520.056C1310.48 520.828 1299.99 520.842 1290.58 524.508C1281.16 528.175 1267.3 530.257 1267.3 530.257C1267.3 530.257 1240.29 529.471 1237.78 531.828C1235.26 534.185 1232.67 548.302 1238.06 559.537C1243.45 570.773 1249.43 579.18 1253.95 580.712C1258.48 582.244 1287.16 573.392 1310.44 571.297C1333.71 569.201 1358.97 552.217 1358.97 552.217C1358.97 552.217 1386.79 543.051 1391.67 527.638C1396.55 512.225 1385.79 427.513 1385.79 427.513C1385.79 427.513 1377.48 388.097 1354.51 398.757Z" fill="white"/>
<path opacity="0.1" d="M1353.93 524.286C1353.93 524.286 1332.6 520.357 1340.02 526.905C1347.44 533.452 1347.4 539.188 1356.48 538.926C1365.57 538.664 1353.93 524.286 1353.93 524.286Z" fill="black"/>
<path opacity="0.1" d="M1389.96 665.162C1389.96 665.162 1380.33 671.172 1398.77 685.027C1417.2 698.882 1389.96 665.162 1389.96 665.162Z" fill="black"/>
<path opacity="0.1" d="M1371.57 714.569C1371.57 715.355 1368.16 743.378 1380.92 750.384C1393.69 757.39 1371.57 714.569 1371.57 714.569Z" fill="black"/>
<path d="M1168.87 494.94C1158.57 495.267 1136.34 498.161 1147.87 517.974C1158.06 535.508 1175.19 523.788 1184.83 514.896C1182.48 506.607 1176.77 499.464 1168.87 494.94V494.94Z" fill="#FFB0B1"/>
<path d="M1184.96 514.738L1185.39 514.333L1184.96 514.738Z" fill="#FFB0B1"/>
<path opacity="0.1" d="M1351.1 373.693C1340.18 380.568 1331.02 386.369 1329.23 387.573C1324.34 390.913 1315.01 410.516 1309 420.521C1304.21 428.574 1288.64 430.643 1282.77 431.154L1283.52 425.169C1296.87 419.669 1307.1 402.148 1307.1 402.148L1333.48 359.537L1342.57 367.145C1342.57 367.145 1345.98 369.764 1351.1 373.693Z" fill="black"/>
<path d="M1351.1 372.907C1340.18 379.782 1331.02 385.583 1329.23 386.801C1324.34 390.127 1315.01 409.73 1309 419.735C1304.21 427.788 1288.64 429.857 1282.77 430.368L1283.52 424.384C1296.87 418.884 1307.1 401.363 1307.1 401.363L1333.48 358.751L1342.57 366.333C1342.57 366.333 1345.98 368.926 1351.1 372.907Z" fill="#DCE7FF"/>
<path d="M1330.08 339.541C1330.09 347.402 1327.5 355.079 1322.66 361.554C1316.95 369.21 1308.44 374.725 1298.69 377.098C1288.94 379.472 1278.59 378.547 1269.51 374.492C1260.44 370.436 1253.24 363.518 1249.23 354.994C1245.22 346.469 1244.66 336.902 1247.65 328.029C1250.64 319.156 1256.98 311.565 1265.53 306.633C1274.08 301.7 1284.27 299.754 1294.24 301.147C1304.21 302.539 1313.31 307.179 1319.89 314.223C1326.47 321.267 1330.08 330.25 1330.08 339.541V339.541Z" fill="#FFB0B1"/>
<path opacity="0.1" d="M1403.67 470.164C1397.9 466.893 1393.19 462.24 1390.06 456.702C1387.69 452.381 1386.11 447.392 1382.06 444.327C1378.41 441.577 1373.53 440.91 1368.98 439.679C1354.03 435.606 1341.49 423.035 1341.02 408.683C1340.79 401.926 1343.08 395.182 1342.04 388.49C1341.45 384.703 1339.82 381.119 1337.29 378.08C1336.04 376.626 1334.67 375.264 1333.18 374.007C1331.19 372.278 1329.1 370.602 1327.28 368.769C1326.14 367.634 1325.14 366.382 1324.3 365.037C1323.62 363.936 1323.07 362.773 1322.66 361.567C1319.82 353.553 1322.41 344.046 1319.28 335.94L1319.11 335.495C1317.93 332.614 1315.53 329.733 1312.19 329.51C1308.84 329.288 1305.99 331.841 1302.8 332.98C1296.13 335.364 1288.94 331.304 1283.38 327.166C1277.82 323.028 1271.55 318.301 1264.49 319.217C1259.81 319.833 1256.11 322.766 1251.81 324.285C1250.83 324.632 1249.83 324.899 1248.81 325.084C1252.45 316.71 1259.15 309.767 1267.75 305.447C1276.35 301.127 1286.31 299.701 1295.93 301.413C1305.55 303.125 1314.22 307.869 1320.45 314.829C1326.68 321.789 1330.09 330.532 1330.08 339.554C1330.09 342.278 1329.78 344.996 1329.16 347.66C1329.23 347.843 1329.3 348.013 1329.39 348.197C1331.04 352.125 1332.9 356.158 1334.53 359.642L1342.57 366.346C1342.57 366.346 1345.98 368.965 1351.1 372.894C1362.23 381.537 1381.46 396.753 1391.39 406.064C1400.12 414.287 1402.85 446.161 1403.67 470.164Z" fill="black"/>
<path d="M1251.31 300.361C1253.34 296.55 1254.35 292.281 1256.78 288.667C1260.35 283.429 1266.58 280.076 1272.98 278.047C1289.68 272.743 1324.98 265.043 1335.53 278.047C1337.6 280.666 1339.32 283.573 1342.2 285.38C1344.39 286.755 1347.03 287.344 1349.43 288.379C1356.16 291.286 1360.45 297.624 1362.74 304.093C1365.03 310.562 1365.71 317.502 1367.39 324.167C1369.54 332.718 1373.3 340.824 1377.06 348.878C1381.48 358.385 1386.17 368.245 1394.7 374.963C1406.34 384.13 1408.92 397.107 1419.72 407.164C1432.51 419.106 1432.1 438.814 1425.51 454.463C1424.64 456.519 1423.66 458.666 1424 460.853C1424.34 463.04 1426.1 465.031 1427.77 466.772L1434.76 474.04C1418.21 477.72 1399.49 469.758 1391.78 455.786C1389.41 451.464 1387.83 446.488 1383.77 443.411C1380.13 440.661 1375.24 440.006 1370.7 438.775C1355.74 434.689 1343.21 422.105 1342.74 407.753C1342.51 401.009 1344.8 394.265 1343.76 387.587C1343.18 383.774 1341.54 380.165 1339 377.111C1335.09 372.409 1329.19 369.254 1326 364.016C1320.62 355.255 1324.71 343.875 1320.83 334.473C1319.63 331.592 1317.25 328.711 1313.91 328.489C1310.56 328.266 1307.71 330.82 1304.51 331.959C1297.85 334.342 1290.66 330.296 1285.1 326.145C1279.54 321.994 1273.27 317.279 1266.19 318.209C1261.52 318.812 1257.83 321.745 1253.53 323.277C1250.34 324.403 1243.89 325.411 1241.1 322.936C1235.22 317.947 1248.85 305.022 1251.31 300.361Z" fill="#591D4B"/>
<path opacity="0.1" d="M1395.74 451.464C1393.35 447.143 1391.78 442.167 1387.72 439.102C1384.08 436.352 1379.19 435.685 1374.64 434.454C1359.7 430.381 1347.16 417.797 1346.67 403.445C1346.45 396.701 1348.74 389.944 1347.71 383.265C1347.12 379.477 1345.48 375.893 1342.95 372.855C1339.03 368.153 1333.13 364.998 1329.96 359.76C1324.57 351.012 1328.66 339.633 1324.77 330.217C1323.59 327.349 1321.18 324.469 1317.86 324.233C1314.53 323.997 1311.64 326.577 1308.46 327.716C1301.81 330.099 1294.6 326.04 1289.05 321.902C1283.51 317.764 1277.21 313.037 1270.15 313.953C1265.47 314.569 1261.77 317.502 1257.48 319.021C1254.29 320.147 1247.83 321.169 1245.04 318.694C1239.18 313.456 1252.82 300.557 1255.26 295.921C1257.29 292.098 1258.3 287.842 1260.75 284.227C1260.88 284.031 1261.02 283.835 1261.16 283.638C1259.33 285.034 1257.75 286.687 1256.48 288.536C1254.05 292.15 1253.04 296.393 1251.01 300.23C1248.55 304.865 1234.92 317.803 1240.79 323.002C1243.63 325.49 1250.03 324.468 1253.21 323.342C1257.48 321.81 1261.2 318.877 1265.88 318.275C1272.99 317.345 1279.25 322.072 1284.79 326.21C1290.33 330.348 1297.58 334.408 1304.21 332.024C1307.39 330.885 1310.18 328.318 1313.59 328.554C1317 328.79 1319.28 331.658 1320.52 334.539C1324.4 343.941 1320.3 355.32 1325.69 364.081C1328.88 369.227 1334.78 372.449 1338.68 377.176C1341.23 380.23 1342.87 383.839 1343.45 387.652C1344.49 394.33 1342.2 401.074 1342.42 407.818C1342.89 422.223 1355.43 434.755 1370.39 438.84C1374.89 440.071 1379.81 440.726 1383.45 443.476C1387.53 446.553 1389.14 451.53 1391.47 455.851C1399.18 469.823 1417.9 477.785 1434.45 474.105L1431.15 470.674C1416.81 470.871 1402.29 463.354 1395.74 451.464Z" fill="black"/>
<path opacity="0.1" d="M1297.73 391.698C1295.86 394.317 1290.53 407.727 1286.08 419.434C1281.92 417.941 1278.14 408.421 1278.14 408.421L1300.34 379.324C1302.62 382.204 1301.12 386.984 1297.73 391.698Z" fill="black"/>
<path d="M1298.58 390.913C1296.72 393.532 1291.39 406.941 1286.94 418.648C1282.77 417.168 1278.99 407.635 1278.99 407.635L1301.2 378.551C1303.47 381.419 1301.98 386.212 1298.58 390.913Z" fill="#DCE7FF"/>
<path d="M1169.46 524.691L1157.15 488.929C1157.01 488.51 1156.95 488.069 1156.99 487.631C1157.03 487.193 1157.17 486.766 1157.38 486.376C1157.6 485.985 1157.9 485.638 1158.27 485.355C1158.64 485.072 1159.06 484.858 1159.51 484.725V484.725C1160.43 484.462 1161.42 484.543 1162.27 484.95C1163.13 485.357 1163.77 486.058 1164.06 486.899L1176.37 522.622L1175.15 530.1L1169.46 524.691Z" fill="#BE8B87"/>
<path opacity="0.1" d="M1158.32 485.786C1159.24 485.519 1160.23 485.597 1161.09 486.005C1161.94 486.412 1162.59 487.115 1162.88 487.96L1175.19 523.683L1174.27 529.288L1175.17 530.152L1176.39 522.675L1164.01 486.952C1163.71 486.11 1163.07 485.409 1162.22 485.002C1161.36 484.595 1160.37 484.514 1159.46 484.778V484.778C1158.68 485.008 1158.02 485.469 1157.56 486.087C1157.81 485.968 1158.06 485.867 1158.32 485.786V485.786Z" fill="white"/>
<path d="M1169.46 524.691L1176.37 522.675L1175.36 528.803L1175.15 530.152L1173.13 528.214L1169.46 524.691Z" fill="#EFC8C4"/>
<path d="M1173.13 528.214C1173.25 528.074 1173.4 527.958 1173.57 527.874C1173.67 527.815 1173.79 527.784 1173.91 527.784C1174.02 527.784 1174.14 527.815 1174.24 527.874C1174.34 527.981 1174.42 528.1 1174.48 528.227C1174.58 528.372 1174.7 528.495 1174.86 528.588C1175.01 528.681 1175.18 528.741 1175.36 528.764L1175.15 530.074L1173.13 528.214Z" fill="#727A9C"/>
<path d="M1157.08 501.631C1157.08 501.631 1181.78 501.5 1175.96 511.177C1170.15 520.855 1161.06 522.02 1161.06 522.02L1157.08 501.631Z" fill="#FFB0B1"/>
</g>
<defs>
<linearGradient id="paint0_linear" x1="317338" y1="607978" x2="317338" y2="194360" gradientUnits="userSpaceOnUse">
<stop stop-color="#808080" stop-opacity="0.25"/>
<stop offset="0.54" stop-color="#808080" stop-opacity="0.12"/>
<stop offset="1" stop-color="#808080" stop-opacity="0.1"/>
</linearGradient>
<clipPath id="clip0">
<rect width="1571" height="1025" fill="white"/>
</clipPath>
</defs>
</svg>
