<svg width="399" height="206" viewBox="0 0 399 206" fill="none" xmlns="http://www.w3.org/2000/svg">
<path d="M68.38 24.2C68.38 22.7333 69.1133 22 70.58 22H81.8C83.2667 22 84 22.7333 84 24.2V173.8C84 175.267 83.2667 176 81.8 176H70.58C69.1133 176 68.38 175.267 68.38 173.8V106.7C68.38 106.113 68.0867 105.82 67.5 105.82H28.34C27.7533 105.82 27.46 106.113 27.46 106.7V173.8C27.46 175.267 26.7267 176 25.26 176H14.04C12.5733 176 11.84 175.267 11.84 173.8V24.2C11.84 22.7333 12.5733 22 14.04 22H25.26C26.7267 22 27.46 22.7333 27.46 24.2V91.08C27.46 91.6667 27.7533 91.96 28.34 91.96H67.5C68.0867 91.96 68.38 91.6667 68.38 91.08V24.2Z" fill="#3D5A80"/>
<path d="M176.644 40.44C177.196 40.44 177.64 40.62 177.976 40.98C178.312 41.316 178.48 41.76 178.48 42.312V64.308C178.48 64.86 178.312 65.316 177.976 65.676C177.64 66.012 177.196 66.18 176.644 66.18C176.092 66.18 175.648 66.012 175.312 65.676C174.976 65.34 174.808 64.884 174.808 64.308V54.624H160.624V64.308C160.624 64.86 160.456 65.316 160.12 65.676C159.784 66.012 159.34 66.18 158.788 66.18C158.236 66.18 157.792 66.012 157.456 65.676C157.12 65.34 156.952 64.884 156.952 64.308V42.312C156.952 41.76 157.12 41.316 157.456 40.98C157.792 40.62 158.236 40.44 158.788 40.44C159.34 40.44 159.784 40.62 160.12 40.98C160.456 41.316 160.624 41.76 160.624 42.312V51.6H174.808V42.312C174.808 41.76 174.976 41.316 175.312 40.98C175.648 40.62 176.092 40.44 176.644 40.44ZM186.21 66C185.634 66 185.178 65.844 184.842 65.532C184.53 65.196 184.374 64.752 184.374 64.2V42.42C184.374 41.868 184.53 41.436 184.842 41.124C185.178 40.788 185.634 40.62 186.21 40.62H199.458C200.01 40.62 200.43 40.752 200.718 41.016C201.03 41.28 201.186 41.652 201.186 42.132C201.186 42.612 201.03 42.984 200.718 43.248C200.43 43.488 200.01 43.608 199.458 43.608H188.01V51.6H198.738C199.29 51.6 199.71 51.732 199.998 51.996C200.31 52.26 200.466 52.632 200.466 53.112C200.466 53.592 200.31 53.964 199.998 54.228C199.71 54.492 199.29 54.624 198.738 54.624H188.01V63.012H199.458C200.61 63.012 201.186 63.504 201.186 64.488C201.186 64.968 201.03 65.34 200.718 65.604C200.43 65.868 200.01 66 199.458 66H186.21ZM227.367 63.84C227.487 64.128 227.547 64.368 227.547 64.56C227.547 65.016 227.355 65.4 226.971 65.712C226.611 66.024 226.203 66.18 225.747 66.18C225.435 66.18 225.135 66.096 224.847 65.928C224.583 65.736 224.379 65.472 224.235 65.136L221.859 59.736H208.683L206.307 65.136C206.163 65.472 205.947 65.736 205.659 65.928C205.371 66.096 205.071 66.18 204.759 66.18C204.279 66.18 203.847 66.024 203.463 65.712C203.103 65.4 202.923 65.016 202.923 64.56C202.923 64.368 202.983 64.128 203.103 63.84L213.255 41.628C213.423 41.244 213.687 40.944 214.047 40.728C214.431 40.512 214.827 40.404 215.235 40.404C215.643 40.404 216.027 40.512 216.387 40.728C216.771 40.944 217.047 41.244 217.215 41.628L227.367 63.84ZM210.015 56.784H220.563L215.271 44.868L210.015 56.784ZM233.213 66C232.661 66 232.217 65.844 231.881 65.532C231.569 65.22 231.413 64.8 231.413 64.272V42.312C231.413 41.76 231.581 41.316 231.917 40.98C232.253 40.62 232.697 40.44 233.249 40.44C233.825 40.44 234.281 40.608 234.617 40.944C234.953 41.28 235.121 41.736 235.121 42.312V62.904H246.065C246.617 62.904 247.037 63.036 247.325 63.3C247.637 63.564 247.793 63.948 247.793 64.452C247.793 64.956 247.637 65.34 247.325 65.604C247.037 65.868 246.617 66 246.065 66H233.213ZM254.52 66.18C253.968 66.18 253.512 66.012 253.152 65.676C252.816 65.316 252.648 64.86 252.648 64.308V43.716H245.448C244.296 43.716 243.72 43.2 243.72 42.168C243.72 41.664 243.864 41.28 244.152 41.016C244.464 40.752 244.896 40.62 245.448 40.62H263.592C264.144 40.62 264.564 40.752 264.852 41.016C265.164 41.28 265.32 41.664 265.32 42.168C265.32 43.2 264.744 43.716 263.592 43.716H256.392V64.308C256.392 64.86 256.224 65.316 255.888 65.676C255.552 66.012 255.096 66.18 254.52 66.18ZM288.089 40.44C288.641 40.44 289.085 40.62 289.421 40.98C289.757 41.316 289.925 41.76 289.925 42.312V64.308C289.925 64.86 289.757 65.316 289.421 65.676C289.085 66.012 288.641 66.18 288.089 66.18C287.537 66.18 287.093 66.012 286.757 65.676C286.421 65.34 286.253 64.884 286.253 64.308V54.624H272.069V64.308C272.069 64.86 271.901 65.316 271.565 65.676C271.229 66.012 270.785 66.18 270.233 66.18C269.681 66.18 269.237 66.012 268.901 65.676C268.565 65.34 268.397 64.884 268.397 64.308V42.312C268.397 41.76 268.565 41.316 268.901 40.98C269.237 40.62 269.681 40.44 270.233 40.44C270.785 40.44 271.229 40.62 271.565 40.98C271.901 41.316 272.069 41.76 272.069 42.312V51.6H286.253V42.312C286.253 41.76 286.421 41.316 286.757 40.98C287.093 40.62 287.537 40.44 288.089 40.44ZM158.788 115.18C158.236 115.18 157.792 115.012 157.456 114.676C157.12 114.34 156.952 113.884 156.952 113.308V91.42C156.952 90.868 157.108 90.436 157.42 90.124C157.756 89.788 158.212 89.62 158.788 89.62H167.464C170.152 89.62 172.24 90.28 173.728 91.6C175.216 92.92 175.96 94.792 175.96 97.216C175.96 99.616 175.216 101.488 173.728 102.832C172.24 104.176 170.152 104.848 167.464 104.848H160.66V113.308C160.66 113.884 160.492 114.34 160.156 114.676C159.844 115.012 159.388 115.18 158.788 115.18ZM167.068 101.86C170.62 101.86 172.396 100.312 172.396 97.216C172.396 94.144 170.62 92.608 167.068 92.608H160.66V101.86H167.068ZM200.236 112.696C200.452 113.008 200.56 113.344 200.56 113.704C200.56 114.136 200.38 114.508 200.02 114.82C199.684 115.108 199.288 115.252 198.832 115.252C198.16 115.252 197.62 114.952 197.212 114.352L192.388 106.864C191.836 106 191.248 105.4 190.624 105.064C190 104.704 189.184 104.524 188.176 104.524H184.108V113.308C184.108 113.884 183.94 114.34 183.604 114.676C183.292 115.012 182.848 115.18 182.272 115.18C181.72 115.18 181.276 115.012 180.94 114.676C180.604 114.34 180.436 113.884 180.436 113.308V91.42C180.436 90.868 180.592 90.436 180.904 90.124C181.24 89.788 181.696 89.62 182.272 89.62H191.236C194.044 89.62 196.18 90.244 197.644 91.492C199.132 92.74 199.876 94.564 199.876 96.964C199.876 98.956 199.312 100.576 198.184 101.824C197.056 103.048 195.448 103.828 193.36 104.164C193.984 104.332 194.548 104.632 195.052 105.064C195.556 105.496 196.048 106.096 196.528 106.864L200.236 112.696ZM190.804 101.536C192.676 101.536 194.056 101.176 194.944 100.456C195.856 99.712 196.312 98.572 196.312 97.036C196.312 95.5 195.868 94.384 194.98 93.688C194.092 92.968 192.7 92.608 190.804 92.608H184.072V101.536H190.804ZM207.128 115C206.552 115 206.096 114.844 205.76 114.532C205.448 114.196 205.292 113.752 205.292 113.2V91.42C205.292 90.868 205.448 90.436 205.76 90.124C206.096 89.788 206.552 89.62 207.128 89.62H220.376C220.928 89.62 221.348 89.752 221.636 90.016C221.948 90.28 222.104 90.652 222.104 91.132C222.104 91.612 221.948 91.984 221.636 92.248C221.348 92.488 220.928 92.608 220.376 92.608H208.928V100.6H219.656C220.208 100.6 220.628 100.732 220.916 100.996C221.228 101.26 221.384 101.632 221.384 102.112C221.384 102.592 221.228 102.964 220.916 103.228C220.628 103.492 220.208 103.624 219.656 103.624H208.928V112.012H220.376C221.528 112.012 222.104 112.504 222.104 113.488C222.104 113.968 221.948 114.34 221.636 114.604C221.348 114.868 220.928 115 220.376 115H207.128ZM244.785 90.412C245.097 89.74 245.613 89.404 246.333 89.404C246.813 89.404 247.245 89.572 247.629 89.908C248.013 90.22 248.205 90.604 248.205 91.06C248.205 91.228 248.145 91.456 248.025 91.744L237.873 113.992C237.705 114.376 237.441 114.676 237.081 114.892C236.721 115.108 236.337 115.216 235.929 115.216C235.521 115.216 235.125 115.108 234.741 114.892C234.381 114.676 234.117 114.376 233.949 113.992L223.833 91.744C223.713 91.456 223.653 91.228 223.653 91.06C223.653 90.58 223.845 90.184 224.229 89.872C224.637 89.56 225.081 89.404 225.561 89.404C226.305 89.404 226.833 89.74 227.145 90.412L235.965 110.176L244.785 90.412ZM253.323 115C252.747 115 252.291 114.844 251.955 114.532C251.643 114.196 251.487 113.752 251.487 113.2V91.42C251.487 90.868 251.643 90.436 251.955 90.124C252.291 89.788 252.747 89.62 253.323 89.62H266.571C267.123 89.62 267.543 89.752 267.831 90.016C268.143 90.28 268.299 90.652 268.299 91.132C268.299 91.612 268.143 91.984 267.831 92.248C267.543 92.488 267.123 92.608 266.571 92.608H255.123V100.6H265.851C266.403 100.6 266.823 100.732 267.111 100.996C267.423 101.26 267.579 101.632 267.579 102.112C267.579 102.592 267.423 102.964 267.111 103.228C266.823 103.492 266.403 103.624 265.851 103.624H255.123V112.012H266.571C267.723 112.012 268.299 112.504 268.299 113.488C268.299 113.968 268.143 114.34 267.831 114.604C267.543 114.868 267.123 115 266.571 115H253.323ZM291.626 89.44C292.154 89.44 292.574 89.62 292.886 89.98C293.222 90.316 293.39 90.76 293.39 91.312V113.308C293.39 113.86 293.222 114.316 292.886 114.676C292.55 115.012 292.118 115.18 291.59 115.18C290.966 115.18 290.486 114.94 290.15 114.46L276.038 95.848V113.308C276.038 113.86 275.87 114.316 275.534 114.676C275.222 115.012 274.802 115.18 274.274 115.18C273.746 115.18 273.326 115.012 273.014 114.676C272.702 114.34 272.546 113.884 272.546 113.308V91.312C272.546 90.76 272.714 90.316 273.05 89.98C273.386 89.62 273.818 89.44 274.346 89.44C274.97 89.44 275.45 89.68 275.786 90.16L289.898 108.808V91.312C289.898 90.76 290.054 90.316 290.366 89.98C290.678 89.62 291.098 89.44 291.626 89.44ZM307.22 115.18C306.668 115.18 306.212 115.012 305.852 114.676C305.516 114.316 305.348 113.86 305.348 113.308V92.716H298.148C296.996 92.716 296.42 92.2 296.42 91.168C296.42 90.664 296.564 90.28 296.852 90.016C297.164 89.752 297.596 89.62 298.148 89.62H316.292C316.844 89.62 317.264 89.752 317.552 90.016C317.864 90.28 318.02 90.664 318.02 91.168C318.02 92.2 317.444 92.716 316.292 92.716H309.092V113.308C309.092 113.86 308.924 114.316 308.588 114.676C308.252 115.012 307.796 115.18 307.22 115.18ZM164.872 164.18C164.32 164.18 163.864 164.012 163.504 163.676C163.168 163.316 163 162.86 163 162.308V141.716H155.8C154.648 141.716 154.072 141.2 154.072 140.168C154.072 139.664 154.216 139.28 154.504 139.016C154.816 138.752 155.248 138.62 155.8 138.62H173.944C174.496 138.62 174.916 138.752 175.204 139.016C175.516 139.28 175.672 139.664 175.672 140.168C175.672 141.2 175.096 141.716 173.944 141.716H166.744V162.308C166.744 162.86 166.576 163.316 166.24 163.676C165.904 164.012 165.448 164.18 164.872 164.18ZM180.585 164C180.009 164 179.553 163.844 179.217 163.532C178.905 163.196 178.749 162.752 178.749 162.2V140.42C178.749 139.868 178.905 139.436 179.217 139.124C179.553 138.788 180.009 138.62 180.585 138.62H193.833C194.385 138.62 194.805 138.752 195.093 139.016C195.405 139.28 195.561 139.652 195.561 140.132C195.561 140.612 195.405 140.984 195.093 141.248C194.805 141.488 194.385 141.608 193.833 141.608H182.385V149.6H193.113C193.665 149.6 194.085 149.732 194.373 149.996C194.685 150.26 194.841 150.632 194.841 151.112C194.841 151.592 194.685 151.964 194.373 152.228C194.085 152.492 193.665 152.624 193.113 152.624H182.385V161.012H193.833C194.985 161.012 195.561 161.504 195.561 162.488C195.561 162.968 195.405 163.34 195.093 163.604C194.805 163.868 194.385 164 193.833 164H180.585ZM210.754 164.288C208.33 164.288 206.218 163.772 204.418 162.74C202.618 161.684 201.238 160.184 200.278 158.24C199.318 156.272 198.838 153.956 198.838 151.292C198.838 148.652 199.318 146.36 200.278 144.416C201.238 142.448 202.618 140.948 204.418 139.916C206.218 138.86 208.33 138.332 210.754 138.332C212.338 138.332 213.838 138.584 215.254 139.088C216.67 139.568 217.906 140.276 218.962 141.212C219.418 141.572 219.646 142.052 219.646 142.652C219.646 143.084 219.526 143.456 219.286 143.768C219.046 144.056 218.758 144.2 218.422 144.2C218.014 144.2 217.618 144.044 217.234 143.732C216.082 142.868 215.026 142.268 214.066 141.932C213.13 141.572 212.062 141.392 210.862 141.392C208.222 141.392 206.194 142.244 204.778 143.948C203.362 145.652 202.654 148.1 202.654 151.292C202.654 154.508 203.362 156.968 204.778 158.672C206.194 160.376 208.222 161.228 210.862 161.228C212.014 161.228 213.058 161.048 213.994 160.688C214.954 160.328 216.034 159.728 217.234 158.888C217.714 158.576 218.11 158.42 218.422 158.42C218.758 158.42 219.046 158.576 219.286 158.888C219.526 159.176 219.646 159.536 219.646 159.968C219.646 160.568 219.418 161.048 218.962 161.408C217.906 162.344 216.67 163.064 215.254 163.568C213.838 164.048 212.338 164.288 210.754 164.288ZM243.757 138.44C244.309 138.44 244.753 138.62 245.089 138.98C245.425 139.316 245.593 139.76 245.593 140.312V162.308C245.593 162.86 245.425 163.316 245.089 163.676C244.753 164.012 244.309 164.18 243.757 164.18C243.205 164.18 242.761 164.012 242.425 163.676C242.089 163.34 241.921 162.884 241.921 162.308V152.624H227.737V162.308C227.737 162.86 227.569 163.316 227.233 163.676C226.897 164.012 226.453 164.18 225.901 164.18C225.349 164.18 224.905 164.012 224.569 163.676C224.233 163.34 224.065 162.884 224.065 162.308V140.312C224.065 139.76 224.233 139.316 224.569 138.98C224.905 138.62 225.349 138.44 225.901 138.44C226.453 138.44 226.897 138.62 227.233 138.98C227.569 139.316 227.737 139.76 227.737 140.312V149.6H241.921V140.312C241.921 139.76 242.089 139.316 242.425 138.98C242.761 138.62 243.205 138.44 243.757 138.44ZM270.567 138.44C271.095 138.44 271.515 138.62 271.827 138.98C272.163 139.316 272.331 139.76 272.331 140.312V162.308C272.331 162.86 272.163 163.316 271.827 163.676C271.491 164.012 271.059 164.18 270.531 164.18C269.907 164.18 269.427 163.94 269.091 163.46L254.979 144.848V162.308C254.979 162.86 254.811 163.316 254.475 163.676C254.163 164.012 253.743 164.18 253.215 164.18C252.687 164.18 252.267 164.012 251.955 163.676C251.643 163.34 251.487 162.884 251.487 162.308V140.312C251.487 139.76 251.655 139.316 251.991 138.98C252.327 138.62 252.759 138.44 253.287 138.44C253.911 138.44 254.391 138.68 254.727 139.16L268.839 157.808V140.312C268.839 139.76 268.995 139.316 269.307 138.98C269.619 138.62 270.039 138.44 270.567 138.44ZM289.149 164.288C286.749 164.288 284.661 163.76 282.885 162.704C281.133 161.648 279.777 160.148 278.817 158.204C277.857 156.26 277.377 153.968 277.377 151.328C277.377 148.664 277.845 146.36 278.781 144.416C279.741 142.448 281.109 140.948 282.885 139.916C284.661 138.86 286.749 138.332 289.149 138.332C291.573 138.332 293.673 138.86 295.449 139.916C297.225 140.948 298.581 142.448 299.517 144.416C300.477 146.36 300.957 148.652 300.957 151.292C300.957 153.932 300.477 156.236 299.517 158.204C298.581 160.148 297.225 161.648 295.449 162.704C293.673 163.76 291.573 164.288 289.149 164.288ZM289.149 161.264C291.693 161.264 293.673 160.4 295.089 158.672C296.505 156.944 297.213 154.484 297.213 151.292C297.213 148.1 296.505 145.652 295.089 143.948C293.697 142.22 291.717 141.356 289.149 141.356C286.629 141.356 284.661 142.22 283.245 143.948C281.853 145.652 281.157 148.1 281.157 151.292C281.157 154.484 281.853 156.944 283.245 158.672C284.661 160.4 286.629 161.264 289.149 161.264ZM307.814 164C307.263 164 306.819 163.844 306.483 163.532C306.171 163.22 306.015 162.8 306.015 162.272V140.312C306.015 139.76 306.183 139.316 306.519 138.98C306.855 138.62 307.299 138.44 307.851 138.44C308.427 138.44 308.883 138.608 309.219 138.944C309.555 139.28 309.723 139.736 309.723 140.312V160.904H320.667C321.219 160.904 321.639 161.036 321.927 161.3C322.239 161.564 322.395 161.948 322.395 162.452C322.395 162.956 322.239 163.34 321.927 163.604C321.639 163.868 321.219 164 320.667 164H307.814ZM335.274 164.288C332.874 164.288 330.786 163.76 329.01 162.704C327.258 161.648 325.902 160.148 324.942 158.204C323.982 156.26 323.502 153.968 323.502 151.328C323.502 148.664 323.97 146.36 324.906 144.416C325.866 142.448 327.234 140.948 329.01 139.916C330.786 138.86 332.874 138.332 335.274 138.332C337.698 138.332 339.798 138.86 341.574 139.916C343.35 140.948 344.706 142.448 345.642 144.416C346.602 146.36 347.082 148.652 347.082 151.292C347.082 153.932 346.602 156.236 345.642 158.204C344.706 160.148 343.35 161.648 341.574 162.704C339.798 163.76 337.698 164.288 335.274 164.288ZM335.274 161.264C337.818 161.264 339.798 160.4 341.214 158.672C342.63 156.944 343.338 154.484 343.338 151.292C343.338 148.1 342.63 145.652 341.214 143.948C339.822 142.22 337.842 141.356 335.274 141.356C332.754 141.356 330.786 142.22 329.37 143.948C327.978 145.652 327.282 148.1 327.282 151.292C327.282 154.484 327.978 156.944 329.37 158.672C330.786 160.4 332.754 161.264 335.274 161.264ZM371.22 150.536C371.676 150.536 372.036 150.668 372.3 150.932C372.588 151.196 372.732 151.556 372.732 152.012V160.436C372.732 161.252 372.612 161.84 372.372 162.2C372.156 162.56 371.712 162.848 371.04 163.064C370.08 163.448 368.94 163.748 367.62 163.964C366.3 164.18 364.992 164.288 363.696 164.288C361.128 164.288 358.908 163.772 357.036 162.74C355.164 161.708 353.736 160.22 352.752 158.276C351.768 156.332 351.276 154.004 351.276 151.292C351.276 148.628 351.768 146.324 352.752 144.38C353.736 142.436 355.14 140.948 356.964 139.916C358.812 138.86 360.972 138.332 363.444 138.332C365.124 138.332 366.672 138.584 368.088 139.088C369.528 139.568 370.752 140.276 371.76 141.212C372.24 141.596 372.48 142.076 372.48 142.652C372.48 143.084 372.36 143.456 372.12 143.768C371.88 144.056 371.592 144.2 371.256 144.2C371.04 144.2 370.848 144.164 370.68 144.092C370.512 144.02 370.296 143.9 370.032 143.732C368.856 142.868 367.788 142.268 366.828 141.932C365.868 141.572 364.764 141.392 363.516 141.392C360.78 141.392 358.692 142.244 357.252 143.948C355.812 145.628 355.092 148.076 355.092 151.292C355.092 154.58 355.824 157.076 357.288 158.78C358.776 160.46 360.948 161.3 363.804 161.3C365.724 161.3 367.572 161.012 369.348 160.436V153.344H364.632C364.152 153.344 363.768 153.224 363.48 152.984C363.216 152.72 363.084 152.372 363.084 151.94C363.084 151.508 363.216 151.172 363.48 150.932C363.768 150.668 364.152 150.536 364.632 150.536H371.22ZM393.68 139.088C394.016 138.656 394.436 138.44 394.94 138.44C395.372 138.44 395.756 138.62 396.092 138.98C396.452 139.316 396.632 139.712 396.632 140.168C396.632 140.6 396.488 140.972 396.2 141.284L387.704 151.868V162.308C387.704 162.908 387.524 163.376 387.164 163.712C386.828 164.024 386.384 164.18 385.832 164.18C385.28 164.18 384.836 164.024 384.5 163.712C384.164 163.376 383.996 162.908 383.996 162.308V151.868L375.5 141.284C375.212 140.972 375.068 140.588 375.068 140.132C375.068 139.676 375.236 139.28 375.572 138.944C375.908 138.608 376.304 138.44 376.76 138.44C377.24 138.44 377.66 138.656 378.02 139.088L385.868 148.952L393.68 139.088Z" fill="#3D5A80"/>
<path d="M105.161 21.78C115.868 21.78 124.521 25.74 131.121 33.66C137.721 41.4333 141.021 51.7 141.021 64.46C141.021 77.0733 137.794 87.2667 131.341 95.04C124.888 102.667 116.381 106.48 105.821 106.48H83.161C82.5744 106.48 82.281 106.773 82.281 107.36V173.8C82.281 175.267 81.5477 176 80.081 176H68.861C67.3943 176 66.661 175.267 66.661 173.8V23.98C66.661 22.5133 67.3943 21.78 68.861 21.78H105.161ZM103.181 93.72C109.781 93.72 115.134 91.08 119.241 85.8C123.348 80.52 125.401 73.48 125.401 64.68C125.401 55.88 123.348 48.84 119.241 43.56C115.134 38.1333 109.781 35.42 103.181 35.42H83.161C82.5744 35.42 82.281 35.7133 82.281 36.3V92.84C82.281 93.4267 82.5744 93.72 83.161 93.72H103.181Z" fill="#3D5A80"/>
</svg>
