<svg width="723" height="106" viewBox="0 0 723 106" fill="none" xmlns="http://www.w3.org/2000/svg">
<path d="M62.48 12.2C62.48 11.4 62.88 11 63.68 11H69.8C70.6 11 71 11.4 71 12.2V93.8C71 94.6 70.6 95 69.8 95H63.68C62.88 95 62.48 94.6 62.48 93.8V57.2C62.48 56.88 62.32 56.72 62 56.72H40.64C40.32 56.72 40.16 56.88 40.16 57.2V93.8C40.16 94.6 39.76 95 38.96 95H32.84C32.04 95 31.64 94.6 31.64 93.8V12.2C31.64 11.4 32.04 11 32.84 11H38.96C39.76 11 40.16 11.4 40.16 12.2V48.68C40.16 49 40.32 49.16 40.64 49.16H62C62.32 49.16 62.48 49 62.48 48.68V12.2Z" fill="#3D5A80"/>
<path d="M82.977 9.88C88.817 9.88 93.537 12.04 97.137 16.36C100.737 20.6 102.537 26.2 102.537 33.16C102.537 40.04 100.777 45.6 97.257 49.84C93.737 54 89.097 56.08 83.337 56.08H70.977C70.657 56.08 70.497 56.24 70.497 56.56V92.8C70.497 93.6 70.097 94 69.297 94H63.177C62.377 94 61.977 93.6 61.977 92.8V11.08C61.977 10.28 62.377 9.88 63.177 9.88H82.977ZM81.897 49.12C85.497 49.12 88.417 47.68 90.657 44.8C92.897 41.92 94.017 38.08 94.017 33.28C94.017 28.48 92.897 24.64 90.657 21.76C88.417 18.8 85.497 17.32 81.897 17.32H70.977C70.657 17.32 70.497 17.48 70.497 17.8V48.64C70.497 48.96 70.657 49.12 70.977 49.12H81.897Z" fill="#3D5A80"/>
<path d="M129.824 69.44C130.064 69.44 130.244 69.524 130.364 69.692C130.508 69.836 130.58 70.028 130.58 70.268V94.352C130.58 94.592 130.508 94.796 130.364 94.964C130.244 95.108 130.064 95.18 129.824 95.18C129.584 95.18 129.392 95.108 129.248 94.964C129.128 94.796 129.068 94.592 129.068 94.352V82.796H111.968V94.352C111.968 94.592 111.896 94.796 111.752 94.964C111.632 95.108 111.452 95.18 111.212 95.18C110.972 95.18 110.78 95.108 110.636 94.964C110.516 94.796 110.456 94.592 110.456 94.352V70.268C110.456 70.028 110.516 69.836 110.636 69.692C110.78 69.524 110.972 69.44 111.212 69.44C111.452 69.44 111.632 69.524 111.752 69.692C111.896 69.836 111.968 70.028 111.968 70.268V81.428H129.068V70.268C129.068 70.028 129.128 69.836 129.248 69.692C129.392 69.524 129.584 69.44 129.824 69.44ZM138.391 95C138.151 95 137.935 94.916 137.743 94.748C137.575 94.58 137.491 94.4 137.491 94.208V70.412C137.491 70.196 137.575 70.016 137.743 69.872C137.935 69.704 138.151 69.62 138.391 69.62H152.251C152.443 69.62 152.599 69.692 152.719 69.836C152.839 69.956 152.899 70.124 152.899 70.34C152.899 70.532 152.839 70.7 152.719 70.844C152.599 70.964 152.443 71.024 152.251 71.024H139.003V81.428H151.531C151.723 81.428 151.879 81.488 151.999 81.608C152.119 81.728 152.179 81.896 152.179 82.112C152.179 82.328 152.119 82.508 151.999 82.652C151.879 82.772 151.723 82.832 151.531 82.832H139.003V93.596H152.251C152.443 93.596 152.599 93.656 152.719 93.776C152.839 93.896 152.899 94.064 152.899 94.28C152.899 94.496 152.839 94.676 152.719 94.82C152.599 94.94 152.443 95 152.251 95H138.391ZM178.551 94.28C178.599 94.424 178.623 94.52 178.623 94.568C178.623 94.76 178.551 94.904 178.407 95C178.287 95.12 178.131 95.18 177.939 95.18C177.579 95.18 177.327 95.012 177.183 94.676L174.267 87.98H159.903L156.951 94.676C156.807 95.012 156.567 95.18 156.231 95.18C155.967 95.18 155.763 95.096 155.619 94.928C155.475 94.76 155.451 94.544 155.547 94.28L166.203 69.98C166.347 69.596 166.635 69.404 167.067 69.404C167.259 69.404 167.427 69.464 167.571 69.584C167.739 69.68 167.859 69.812 167.931 69.98L178.551 94.28ZM160.515 86.54H173.619L167.067 71.564L160.515 86.54ZM184.162 95C183.97 95 183.79 94.928 183.622 94.784C183.454 94.64 183.37 94.484 183.37 94.316V70.268C183.37 70.028 183.43 69.836 183.55 69.692C183.694 69.524 183.886 69.44 184.126 69.44C184.606 69.44 184.846 69.716 184.846 70.268V93.632H197.842C198.01 93.632 198.154 93.692 198.274 93.812C198.418 93.932 198.49 94.1 198.49 94.316C198.49 94.508 198.418 94.676 198.274 94.82C198.154 94.94 198.01 95 197.842 95H184.162ZM204.91 95.18C204.67 95.18 204.478 95.108 204.334 94.964C204.214 94.796 204.154 94.592 204.154 94.352V70.988H195.334C195.142 70.988 194.986 70.928 194.866 70.808C194.746 70.688 194.686 70.52 194.686 70.304C194.686 70.112 194.746 69.956 194.866 69.836C194.986 69.692 195.142 69.62 195.334 69.62H214.45C214.618 69.62 214.774 69.692 214.918 69.836C215.062 69.956 215.134 70.112 215.134 70.304C215.134 70.52 215.062 70.688 214.918 70.808C214.774 70.928 214.618 70.988 214.45 70.988H205.666V94.352C205.666 94.592 205.594 94.796 205.45 94.964C205.33 95.108 205.15 95.18 204.91 95.18ZM238.246 69.44C238.486 69.44 238.666 69.524 238.786 69.692C238.93 69.836 239.002 70.028 239.002 70.268V94.352C239.002 94.592 238.93 94.796 238.786 94.964C238.666 95.108 238.486 95.18 238.246 95.18C238.006 95.18 237.814 95.108 237.67 94.964C237.55 94.796 237.49 94.592 237.49 94.352V82.796H220.39V94.352C220.39 94.592 220.318 94.796 220.174 94.964C220.054 95.108 219.874 95.18 219.634 95.18C219.394 95.18 219.202 95.108 219.058 94.964C218.938 94.796 218.878 94.592 218.878 94.352V70.268C218.878 70.028 218.938 69.836 219.058 69.692C219.202 69.524 219.394 69.44 219.634 69.44C219.874 69.44 220.054 69.524 220.174 69.692C220.318 69.836 220.39 70.028 220.39 70.268V81.428H237.49V70.268C237.49 70.028 237.55 69.836 237.67 69.692C237.814 69.524 238.006 69.44 238.246 69.44ZM255.528 95.18C255.288 95.18 255.096 95.108 254.952 94.964C254.832 94.82 254.772 94.616 254.772 94.352V70.412C254.772 70.196 254.856 70.016 255.024 69.872C255.216 69.704 255.432 69.62 255.672 69.62H263.916C266.532 69.62 268.56 70.244 270 71.492C271.44 72.74 272.16 74.516 272.16 76.82C272.16 79.124 271.428 80.912 269.964 82.184C268.524 83.456 266.508 84.092 263.916 84.092H256.248V94.352C256.248 94.616 256.188 94.82 256.068 94.964C255.948 95.108 255.768 95.18 255.528 95.18ZM263.88 82.652C266.112 82.652 267.78 82.16 268.884 81.176C270.012 80.192 270.576 78.74 270.576 76.82C270.576 74.9 270.012 73.46 268.884 72.5C267.78 71.516 266.112 71.024 263.88 71.024H256.248V82.652H263.88ZM296.095 94.136C296.167 94.28 296.203 94.412 296.203 94.532C296.203 94.7 296.131 94.856 295.987 95C295.867 95.12 295.711 95.18 295.519 95.18C295.279 95.18 295.075 95.06 294.907 94.82L290.011 86.864C289.291 85.664 288.523 84.848 287.707 84.416C286.915 83.984 285.811 83.768 284.395 83.768H278.995V94.352C278.995 94.592 278.923 94.796 278.779 94.964C278.659 95.108 278.491 95.18 278.275 95.18C278.035 95.18 277.843 95.108 277.699 94.964C277.579 94.82 277.519 94.616 277.519 94.352V70.412C277.519 70.196 277.603 70.016 277.771 69.872C277.963 69.704 278.179 69.62 278.419 69.62H287.311C289.927 69.62 291.943 70.22 293.359 71.42C294.799 72.596 295.519 74.336 295.519 76.64C295.519 78.704 294.883 80.324 293.611 81.5C292.363 82.676 290.599 83.348 288.319 83.516C288.871 83.708 289.375 84.032 289.831 84.488C290.311 84.944 290.791 85.556 291.271 86.324L296.095 94.136ZM287.347 82.328C291.739 82.328 293.935 80.42 293.935 76.604C293.935 74.732 293.395 73.34 292.315 72.428C291.235 71.492 289.579 71.024 287.347 71.024H279.031V82.328H287.347ZM302.782 95C302.542 95 302.326 94.916 302.134 94.748C301.966 94.58 301.882 94.4 301.882 94.208V70.412C301.882 70.196 301.966 70.016 302.134 69.872C302.326 69.704 302.542 69.62 302.782 69.62H316.642C316.834 69.62 316.99 69.692 317.11 69.836C317.23 69.956 317.29 70.124 317.29 70.34C317.29 70.532 317.23 70.7 317.11 70.844C316.99 70.964 316.834 71.024 316.642 71.024H303.394V81.428H315.922C316.114 81.428 316.27 81.488 316.39 81.608C316.51 81.728 316.57 81.896 316.57 82.112C316.57 82.328 316.51 82.508 316.39 82.652C316.27 82.772 316.114 82.832 315.922 82.832H303.394V93.596H316.642C316.834 93.596 316.99 93.656 317.11 93.776C317.23 93.896 317.29 94.064 317.29 94.28C317.29 94.496 317.23 94.676 317.11 94.82C316.99 94.94 316.834 95 316.642 95H302.782ZM340.958 69.836C341.102 69.524 341.318 69.368 341.606 69.368C341.846 69.368 342.038 69.464 342.182 69.656C342.35 69.824 342.386 70.04 342.29 70.304L331.634 94.568C331.49 94.976 331.214 95.18 330.806 95.18C330.638 95.18 330.47 95.12 330.302 95C330.158 94.904 330.038 94.76 329.942 94.568L319.322 70.304C319.274 70.16 319.25 70.076 319.25 70.052C319.25 69.86 319.322 69.704 319.466 69.584C319.634 69.44 319.814 69.368 320.006 69.368C320.294 69.368 320.51 69.524 320.654 69.836L330.806 93.056L340.958 69.836ZM347.219 95C346.979 95 346.763 94.916 346.571 94.748C346.403 94.58 346.319 94.4 346.319 94.208V70.412C346.319 70.196 346.403 70.016 346.571 69.872C346.763 69.704 346.979 69.62 347.219 69.62H361.079C361.271 69.62 361.427 69.692 361.547 69.836C361.667 69.956 361.727 70.124 361.727 70.34C361.727 70.532 361.667 70.7 361.547 70.844C361.427 70.964 361.271 71.024 361.079 71.024H347.831V81.428H360.359C360.551 81.428 360.707 81.488 360.827 81.608C360.947 81.728 361.007 81.896 361.007 82.112C361.007 82.328 360.947 82.508 360.827 82.652C360.707 82.772 360.551 82.832 360.359 82.832H347.831V93.596H361.079C361.271 93.596 361.427 93.656 361.547 93.776C361.667 93.896 361.727 94.064 361.727 94.28C361.727 94.496 361.667 94.676 361.547 94.82C361.427 94.94 361.271 95 361.079 95H347.219ZM385.817 69.44C386.273 69.44 386.501 69.716 386.501 70.268V94.352C386.501 94.592 386.429 94.796 386.285 94.964C386.165 95.108 385.985 95.18 385.745 95.18C385.577 95.18 385.445 95.144 385.349 95.072C385.253 95 385.145 94.88 385.025 94.712L368.465 72.176V94.352C368.465 94.592 368.393 94.796 368.249 94.964C368.129 95.108 367.961 95.18 367.745 95.18C367.289 95.18 367.061 94.904 367.061 94.352V70.268C367.061 70.028 367.121 69.836 367.241 69.692C367.385 69.524 367.589 69.44 367.853 69.44C368.021 69.44 368.141 69.476 368.213 69.548C368.309 69.596 368.429 69.704 368.573 69.872L385.097 92.408V70.268C385.097 70.028 385.157 69.836 385.277 69.692C385.421 69.524 385.601 69.44 385.817 69.44ZM400.485 95.18C400.245 95.18 400.053 95.108 399.909 94.964C399.789 94.796 399.729 94.592 399.729 94.352V70.988H390.909C390.717 70.988 390.561 70.928 390.441 70.808C390.321 70.688 390.261 70.52 390.261 70.304C390.261 70.112 390.321 69.956 390.441 69.836C390.561 69.692 390.717 69.62 390.909 69.62H410.025C410.193 69.62 410.349 69.692 410.493 69.836C410.637 69.956 410.709 70.112 410.709 70.304C410.709 70.52 410.637 70.688 410.493 70.808C410.349 70.928 410.193 70.988 410.025 70.988H401.241V94.352C401.241 94.592 401.169 94.796 401.025 94.964C400.905 95.108 400.725 95.18 400.485 95.18ZM430.367 95.18C430.127 95.18 429.935 95.108 429.791 94.964C429.671 94.796 429.611 94.592 429.611 94.352V70.988H420.791C420.599 70.988 420.443 70.928 420.323 70.808C420.203 70.688 420.143 70.52 420.143 70.304C420.143 70.112 420.203 69.956 420.323 69.836C420.443 69.692 420.599 69.62 420.791 69.62H439.907C440.075 69.62 440.231 69.692 440.375 69.836C440.519 69.956 440.591 70.112 440.591 70.304C440.591 70.52 440.519 70.688 440.375 70.808C440.231 70.928 440.075 70.988 439.907 70.988H431.123V94.352C431.123 94.592 431.051 94.796 430.907 94.964C430.787 95.108 430.607 95.18 430.367 95.18ZM445.235 95C444.995 95 444.779 94.916 444.587 94.748C444.419 94.58 444.335 94.4 444.335 94.208V70.412C444.335 70.196 444.419 70.016 444.587 69.872C444.779 69.704 444.995 69.62 445.235 69.62H459.095C459.287 69.62 459.443 69.692 459.563 69.836C459.683 69.956 459.743 70.124 459.743 70.34C459.743 70.532 459.683 70.7 459.563 70.844C459.443 70.964 459.287 71.024 459.095 71.024H445.847V81.428H458.375C458.567 81.428 458.723 81.488 458.843 81.608C458.963 81.728 459.023 81.896 459.023 82.112C459.023 82.328 458.963 82.508 458.843 82.652C458.723 82.772 458.567 82.832 458.375 82.832H445.847V93.596H459.095C459.287 93.596 459.443 93.656 459.563 93.776C459.683 93.896 459.743 94.064 459.743 94.28C459.743 94.496 459.683 94.676 459.563 94.82C459.443 94.94 459.287 95 459.095 95H445.235ZM475.162 95.288C472.834 95.288 470.818 94.772 469.114 93.74C467.41 92.684 466.102 91.184 465.19 89.24C464.278 87.272 463.822 84.956 463.822 82.292C463.822 79.628 464.278 77.324 465.19 75.38C466.102 73.436 467.41 71.948 469.114 70.916C470.818 69.86 472.834 69.332 475.162 69.332C476.77 69.332 478.306 69.62 479.77 70.196C481.258 70.772 482.494 71.564 483.478 72.572C483.718 72.812 483.838 73.1 483.838 73.436C483.838 73.628 483.79 73.796 483.694 73.94C483.598 74.06 483.478 74.12 483.334 74.12C483.142 74.12 482.938 74.024 482.722 73.832C481.354 72.68 480.106 71.888 478.978 71.456C477.874 71.024 476.578 70.808 475.09 70.808C472.042 70.808 469.666 71.816 467.962 73.832C466.282 75.848 465.442 78.668 465.442 82.292C465.442 85.94 466.282 88.772 467.962 90.788C469.642 92.804 472.018 93.812 475.09 93.812C476.602 93.812 477.91 93.596 479.014 93.164C480.118 92.732 481.354 91.94 482.722 90.788C482.986 90.596 483.19 90.5 483.334 90.5C483.478 90.5 483.598 90.572 483.694 90.716C483.79 90.836 483.838 90.992 483.838 91.184C483.838 91.52 483.718 91.808 483.478 92.048C482.494 93.056 481.258 93.848 479.77 94.424C478.306 95 476.77 95.288 475.162 95.288ZM508.597 69.44C508.837 69.44 509.017 69.524 509.137 69.692C509.281 69.836 509.353 70.028 509.353 70.268V94.352C509.353 94.592 509.281 94.796 509.137 94.964C509.017 95.108 508.837 95.18 508.597 95.18C508.357 95.18 508.165 95.108 508.021 94.964C507.901 94.796 507.841 94.592 507.841 94.352V82.796H490.741V94.352C490.741 94.592 490.669 94.796 490.525 94.964C490.405 95.108 490.225 95.18 489.985 95.18C489.745 95.18 489.553 95.108 489.409 94.964C489.289 94.796 489.229 94.592 489.229 94.352V70.268C489.229 70.028 489.289 69.836 489.409 69.692C489.553 69.524 489.745 69.44 489.985 69.44C490.225 69.44 490.405 69.524 490.525 69.692C490.669 69.836 490.741 70.028 490.741 70.268V81.428H507.841V70.268C507.841 70.028 507.901 69.836 508.021 69.692C508.165 69.524 508.357 69.44 508.597 69.44ZM535.021 69.44C535.477 69.44 535.705 69.716 535.705 70.268V94.352C535.705 94.592 535.633 94.796 535.489 94.964C535.369 95.108 535.189 95.18 534.949 95.18C534.781 95.18 534.649 95.144 534.553 95.072C534.457 95 534.349 94.88 534.229 94.712L517.669 72.176V94.352C517.669 94.592 517.597 94.796 517.453 94.964C517.333 95.108 517.165 95.18 516.949 95.18C516.493 95.18 516.265 94.904 516.265 94.352V70.268C516.265 70.028 516.325 69.836 516.445 69.692C516.589 69.524 516.793 69.44 517.057 69.44C517.225 69.44 517.345 69.476 517.417 69.548C517.513 69.596 517.633 69.704 517.777 69.872L534.301 92.408V70.268C534.301 70.028 534.361 69.836 534.481 69.692C534.625 69.524 534.805 69.44 535.021 69.44ZM552.676 95.288C550.42 95.288 548.452 94.772 546.772 93.74C545.116 92.684 543.832 91.184 542.92 89.24C542.032 87.272 541.588 84.968 541.588 82.328C541.588 79.664 542.032 77.36 542.92 75.416C543.808 73.448 545.08 71.948 546.736 70.916C548.416 69.86 550.396 69.332 552.676 69.332C554.956 69.332 556.936 69.86 558.616 70.916C560.296 71.948 561.58 73.436 562.468 75.38C563.356 77.324 563.8 79.628 563.8 82.292C563.8 84.956 563.344 87.272 562.432 89.24C561.544 91.184 560.26 92.684 558.58 93.74C556.924 94.772 554.956 95.288 552.676 95.288ZM552.676 93.812C555.7 93.812 558.04 92.804 559.696 90.788C561.352 88.772 562.18 85.94 562.18 82.292C562.18 78.644 561.352 75.824 559.696 73.832C558.064 71.816 555.724 70.808 552.676 70.808C549.676 70.808 547.348 71.816 545.692 73.832C544.036 75.824 543.208 78.644 543.208 82.292C543.208 85.94 544.036 88.772 545.692 90.788C547.348 92.804 549.676 93.812 552.676 93.812ZM570.459 95C570.267 95 570.087 94.928 569.919 94.784C569.751 94.64 569.667 94.484 569.667 94.316V70.268C569.667 70.028 569.727 69.836 569.847 69.692C569.991 69.524 570.183 69.44 570.423 69.44C570.903 69.44 571.143 69.716 571.143 70.268V93.632H584.139C584.307 93.632 584.451 93.692 584.571 93.812C584.715 93.932 584.787 94.1 584.787 94.316C584.787 94.508 584.715 94.676 584.571 94.82C584.451 94.94 584.307 95 584.139 95H570.459ZM597.465 95.288C595.209 95.288 593.241 94.772 591.561 93.74C589.905 92.684 588.621 91.184 587.709 89.24C586.821 87.272 586.377 84.968 586.377 82.328C586.377 79.664 586.821 77.36 587.709 75.416C588.597 73.448 589.869 71.948 591.525 70.916C593.205 69.86 595.185 69.332 597.465 69.332C599.745 69.332 601.725 69.86 603.405 70.916C605.085 71.948 606.369 73.436 607.257 75.38C608.145 77.324 608.589 79.628 608.589 82.292C608.589 84.956 608.133 87.272 607.221 89.24C606.333 91.184 605.049 92.684 603.369 93.74C601.713 94.772 599.745 95.288 597.465 95.288ZM597.465 93.812C600.489 93.812 602.829 92.804 604.485 90.788C606.141 88.772 606.969 85.94 606.969 82.292C606.969 78.644 606.141 75.824 604.485 73.832C602.853 71.816 600.513 70.808 597.465 70.808C594.465 70.808 592.137 71.816 590.481 73.832C588.825 75.824 587.997 78.644 587.997 82.292C587.997 85.94 588.825 88.772 590.481 90.788C592.137 92.804 594.465 93.812 597.465 93.812ZM632.888 82.22C633.104 82.22 633.272 82.292 633.392 82.436C633.536 82.556 633.608 82.736 633.608 82.976V93.02C633.608 93.14 633.56 93.26 633.464 93.38C633.392 93.5 633.296 93.608 633.176 93.704C632.192 94.184 630.968 94.568 629.504 94.856C628.064 95.144 626.576 95.288 625.04 95.288C622.616 95.288 620.528 94.784 618.776 93.776C617.048 92.744 615.716 91.256 614.78 89.312C613.868 87.344 613.412 85.004 613.412 82.292C613.412 79.628 613.868 77.324 614.78 75.38C615.692 73.436 617 71.948 618.704 70.916C620.432 69.86 622.46 69.332 624.788 69.332C626.468 69.332 628.052 69.62 629.54 70.196C631.028 70.772 632.24 71.564 633.176 72.572C633.416 72.884 633.536 73.172 633.536 73.436C633.536 73.628 633.488 73.796 633.392 73.94C633.296 74.06 633.164 74.12 632.996 74.12C632.804 74.12 632.6 74.024 632.384 73.832C631.016 72.68 629.78 71.888 628.676 71.456C627.572 71.024 626.276 70.808 624.788 70.808C621.692 70.808 619.292 71.816 617.588 73.832C615.908 75.824 615.068 78.644 615.068 82.292C615.068 86.012 615.92 88.868 617.624 90.86C619.352 92.852 621.824 93.848 625.04 93.848C626.36 93.848 627.644 93.728 628.892 93.488C630.164 93.248 631.268 92.912 632.204 92.48V83.66H625.868C625.604 83.66 625.4 83.588 625.256 83.444C625.112 83.3 625.04 83.132 625.04 82.94C625.04 82.724 625.112 82.556 625.256 82.436C625.4 82.292 625.604 82.22 625.868 82.22H632.888ZM655.61 69.8C655.802 69.584 655.994 69.476 656.186 69.476C656.354 69.476 656.498 69.548 656.618 69.692C656.762 69.836 656.834 69.992 656.834 70.16C656.834 70.304 656.774 70.472 656.654 70.664L647.438 82.688V94.352C647.438 94.592 647.366 94.796 647.222 94.964C647.102 95.108 646.922 95.18 646.682 95.18C646.442 95.18 646.25 95.108 646.106 94.964C645.986 94.796 645.926 94.592 645.926 94.352V82.652L636.71 70.664C636.614 70.544 636.566 70.388 636.566 70.196C636.566 70.004 636.626 69.836 636.746 69.692C636.89 69.548 637.046 69.476 637.214 69.476C637.43 69.476 637.622 69.584 637.79 69.8L646.718 81.428L655.61 69.8Z" fill="#3D5A80"/>
</svg>
